<?xml version="1.0" encoding="UTF-8"?>
<svg width="768px" height="100px" viewBox="0 0 768 100" version="1.1" xmlns="http://www.w3.org/2000/svg" xmlns:xlink="http://www.w3.org/1999/xlink">
    <!-- Generator: Sketch 46.2 (44496) - http://www.bohemiancoding.com/sketch -->
    <title>img-cloud-tablet copy</title>
    <desc>Created with Sketch.</desc>
    <defs></defs>
    <g id="Cloud" stroke="none" stroke-width="1" fill="none" fill-rule="evenodd">
        <g transform="translate(-538.000000, -2648.000000)" id="img-cloud-tablet-copy" fill-rule="nonzero" fill="#F8F8F8">
            <g transform="translate(538.000000, 2648.000000)">
                <path d="M156.2,51.1 C150.5,49 144.4,47.9 138,47.9 C124,47.9 111.2,53.4 101.3,62.6 C98,59.6 93.3,57.7 88.1,57.7 C78.1,57.7 70,64.7 70,73.3 C66.4,72.7 62.6,72.3 58.8,72.3 C43.2,72.3 29,78.3 18.7,88.1 C13.5,82.8 7.1,78.3 0,74.9 L0,100 L768,100 L768,74.8 C765.1,74.2 762,73.9 758.8,73.9 C750.5,73.9 742.9,76 737,79.4 C733.3,76.8 728.9,75.2 724.1,75.2 C715.6,75.2 708.2,80 704.2,87.1 C697.8,83.2 690.2,81 682.1,81 C675.2,81 668.6,82.6 662.9,85.5 C656.3,81.4 648.5,79.1 640.1,79.1 C638.8,79.1 637.6,79.2 636.4,79.3 C630,64.3 614.8,53.7 597.2,53.7 C575.5,53.7 557.6,69.6 555,90.1 C545.4,82.6 533.2,78.1 520,78.1 C506.8,78.1 494.6,82.6 485,90.1 C472.8,79 456.8,72.3 439.4,72.3 C432.9,72.3 426.6,73.2 420.6,75 C416.3,67.6 408.2,62.5 398.9,62.5 C394.6,62.5 390.5,63.6 387,65.5 C373.1,41.2 343.4,24.4 309,24.4 C298.2,24.4 287.8,26.1 278.2,29.1 C265.5,11.5 245.3,0 222.5,0 C191.3,0 164.9,21.5 156.2,51.1 Z" id="Shape"></path>
            </g>
        </g>
    </g>
</svg>