<?xml version="1.0" encoding="utf-8"?>
<!-- Generator: Adobe Illustrator 21.1.0, SVG Export Plug-In . SVG Version: 6.00 Build 0)  -->
<svg version="1.1" id="Layer_1" xmlns="http://www.w3.org/2000/svg" xmlns:xlink="http://www.w3.org/1999/xlink" x="0px" y="0px"
	 viewBox="0 0 768 100" style="enable-background:new 0 0 768 100;" xml:space="preserve">
<style type="text/css">
	.st0{fill:#FFFFFF;}
</style>
<path class="st0" d="M156.2,51.1c-5.7-2.1-11.8-3.2-18.2-3.2c-14,0-26.8,5.5-36.7,14.7c-3.3-3-8-4.9-13.2-4.9
	c-10,0-18.1,7-18.1,15.6c0,0,0,0.1,0,0.1c-3.6-0.7-7.4-1.1-11.2-1.1c-15.6,0-29.8,6-40.1,15.8C13.5,82.8,7.1,78.3,0,74.9V100h768
	V74.8c-2.9-0.6-6-0.9-9.2-0.9c-8.3,0-15.9,2.1-21.8,5.5c-3.7-2.6-8.1-4.2-12.9-4.2c-8.5,0-15.9,4.8-19.9,11.9
	c-6.4-3.9-14-6.1-22.1-6.1c-6.9,0-13.5,1.6-19.2,4.5c-6.6-4.1-14.4-6.4-22.8-6.4c-1.3,0-2.5,0.1-3.7,0.2
	c-6.4-15-21.6-25.6-39.2-25.6c-21.7,0-39.6,15.9-42.2,36.4c-9.6-7.5-21.8-12-35-12c-13.2,0-25.4,4.5-35,12
	c-12.2-11.1-28.2-17.8-45.6-17.8c-6.5,0-12.8,0.9-18.8,2.7c-4.3-7.4-12.4-12.5-21.7-12.5c-4.3,0-8.4,1.1-11.9,3
	c-13.9-24.3-43.6-41.1-78-41.1c-10.8,0-21.2,1.7-30.8,4.7C265.5,11.5,245.3,0,222.5,0C191.3,0,164.9,21.5,156.2,51.1z"/>
</svg>
