<?xml version="1.0" encoding="UTF-8"?>
<svg width="1392px" height="100px" viewBox="0 0 1392 100" version="1.1" xmlns="http://www.w3.org/2000/svg" xmlns:xlink="http://www.w3.org/1999/xlink">
    <!-- Generator: Sketch 46.2 (44496) - http://www.bohemiancoding.com/sketch -->
    <title>Cloud white - D</title>
    <desc>Created with Sketch.</desc>
    <defs>
        <rect id="path-1" x="0" y="0" width="1392" height="100"></rect>
        <path d="M717.972027,65.4713877 C704.03499,41.1876393 674.352762,24.4210526 639.987154,24.4210526 C629.138734,24.4210526 618.757022,26.0918721 609.189996,29.1425451 C596.547087,11.4553411 576.325392,0 553.536627,0 C522.304445,0 495.89397,21.5164741 487.20643,51.1030724 C481.508186,49.0041667 475.397335,47.8652632 469.039785,47.8652632 C455.027982,47.8652632 442.214504,53.3974326 432.375532,62.5465855 C429.080049,59.5219071 424.405407,57.6336842 419.220838,57.6336842 C409.24018,57.6336842 401.149259,64.6312379 401.149259,73.2631579 C401.149259,73.2929399 401.149355,73.3227024 401.149548,73.3524453 C397.517244,72.6531103 393.76076,72.2863158 389.915575,72.2863158 C374.306151,72.2863158 360.158475,78.3308366 349.844956,88.1285768 C337.131481,75.4260709 318.44081,67.4021053 297.603996,67.4021053 C276.8374,67.4021053 258.202508,75.3720812 245.491771,88.0003156 C236.95796,67.8907789 216.488412,53.7263158 192.593469,53.7263158 C171.798969,53.7263158 153.598623,64.453484 143.601288,80.4907183 C141.204329,79.6057969 138.624423,79.1242105 135.936627,79.1242105 C126.759117,79.1242105 118.839479,84.7389744 115.165706,92.8533604 C106.232354,90.2424961 96.6300896,88.8231579 86.6313641,88.8231579 C77.6887268,88.8231579 69.0632233,89.9585028 60.9497712,92.0662108 C59.9656206,78.6039622 49.1763454,68 36.0114715,68 C22.1980172,68 11,79.6745286 11,94.0757895 C11,102.3726 14.7167425,109.764379 20.5090715,114.540134 C7.82476792,127.119101 0.180837809,143.367876 0.180837809,161.109474 C0.180837809,201.032104 38.8860568,233.395789 86.6313641,233.395789 C134.376671,233.395789 173.08189,201.032104 173.08189,161.109474 C173.08189,161.009074 173.081646,160.908722 173.081157,160.808418 C179.169711,162.944498 185.740727,164.109474 192.593469,164.109474 C208.049404,164.109474 222.072197,158.183241 232.358736,148.555149 C242.008178,171.868559 267.577826,188.530526 297.603996,188.530526 C318.716373,188.530526 337.625466,180.292927 350.346209,167.297644 C360.614535,176.818073 374.557532,182.669474 389.915575,182.669474 C409.620524,182.669474 426.996045,173.036979 437.269539,158.381423 C446.305245,165.075789 457.248187,168.993684 469.039785,168.993684 C491.134032,168.993684 510.248768,155.238518 519.420249,135.236917 C529.49365,141.18011 541.135017,144.572632 553.536627,144.572632 C560.097626,144.572632 566.445843,143.623107 572.461675,141.848711 C588.304153,158.396044 612.665544,168.993684 639.987154,168.993684 C663.85572,168.993684 685.465038,160.905533 701.10887,147.828231 C702.742373,186.239974 733.138213,216.858947 770.395575,216.858947 C794.761055,216.858947 816.191954,203.763619 828.562667,183.957395 C835.431007,186.899049 843.014129,188.530526 850.985048,188.530526 C882.006011,188.530526 907.153469,163.820415 907.153469,133.338947 C907.153469,132.66314 907.141108,131.990169 907.116595,131.320241 C913.319614,134.78058 920.501248,136.757895 928.155575,136.757895 C929.416311,136.757895 930.664225,136.704252 931.897053,136.599175 C938.298674,151.606518 953.456706,162.155789 971.136627,162.155789 C978.065568,162.155789 984.607163,160.535489 990.386126,157.661547 C996.964569,161.744668 1004.77004,164.109474 1013.14084,164.109474 C1036.4438,164.109474 1055.36562,145.782779 1055.63065,123.076857 C1056.37547,123.060742 1057.11158,123.007644 1057.83734,122.919252 C1063.27634,131.092578 1075.11607,136.757895 1088.8461,136.757895 C1094.99901,136.757895 1100.77229,135.620158 1105.76004,133.628831 C1115.53025,148.025876 1133.55224,157.684211 1154.16842,157.684211 C1171.71339,157.684211 1187.37951,150.68916 1197.67969,139.731309 C1202.94065,142.798759 1209.16502,144.572632 1215.83557,144.572632 C1224.27692,144.572632 1232.00375,141.731955 1237.96788,137.02392 C1249.09825,153.353643 1268.08455,164.109474 1289.63584,164.109474 C1298.26792,164.109474 1306.4885,162.383921 1313.9576,159.265796 C1326.1055,171.836143 1343.704,179.738947 1363.28254,179.738947 C1399.93717,179.738947 1429.65161,152.03904 1429.65161,117.869474 C1429.65161,83.6999069 1399.93717,56 1363.28254,56 C1353.18716,56 1343.61824,58.101192 1335.05157,61.8600326 C1323.71932,49.9550753 1307.56523,42.5107007 1289.63584,42.5107007 C1262.16051,42.5107007 1238.85412,59.9923857 1230.67996,84.2183062 C1226.1904,82.2058798 1221.15485,81.0778947 1215.83557,81.0778947 C1211.02964,81.0778947 1206.45531,81.9986717 1202.30601,83.6606062 C1192.47592,69.4820508 1174.59559,60 1154.16842,60 C1130.50882,60 1110.26588,72.720394 1101.9908,90.725352 C1097.94417,89.5446275 1093.50391,88.8926316 1088.8461,88.8926316 C1084.51206,88.8926316 1080.36638,89.4571352 1076.55091,90.4868353 C1073.22156,81.5510664 1064.89283,75.2168421 1055.14505,75.2168421 C1046.66124,75.2168421 1039.25234,80.0148721 1035.27869,87.1501396 C1028.83141,83.2979999 1021.25149,81.0778947 1013.14084,81.0778947 C1006.2119,81.0778947 999.670302,82.6981952 993.891339,85.5721371 C987.312896,81.4890163 979.507425,79.1242105 971.136627,79.1242105 C969.87589,79.1242105 968.627977,79.1778532 967.395149,79.28293 C960.993527,64.2755871 945.835495,53.7263158 928.155575,53.7263158 C906.447118,53.7263158 888.540758,69.6308051 885.977645,90.1639481 C876.379033,82.6427505 864.216309,78.1473684 850.985048,78.1473684 C837.770406,78.1473684 825.621617,82.6314654 816.028631,90.1356229 C803.832906,79.0209554 787.868836,72.2863158 770.395575,72.2863158 C763.874035,72.2863158 757.562727,73.2244536 751.579105,74.9783106 C747.309586,67.5412563 739.181474,62.5178947 729.856627,62.5178947 C725.552952,62.5178947 721.50419,63.5879104 717.972027,65.4713877 Z" id="path-3"></path>
    </defs>
    <g id="Cloud" stroke="none" stroke-width="1" fill="none" fill-rule="evenodd">
        <g transform="translate(0.000000, -371.000000)" id="Cloud-white---D">
            <g transform="translate(0.000000, 371.000000)">
                <mask id="mask-2" fill="white">
                    <use xlink:href="#path-1"></use>
                </mask>
                <use id="Mask" fill="#D8D8D8" opacity="0" xlink:href="#path-1"></use>
                <g id="Cloud-shape" mask="url(#mask-2)">
                    <g transform="translate(-19.000000, 0.000000)">
                        <mask id="mask-4" fill="white">
                            <use xlink:href="#path-3"></use>
                        </mask>
                        <use id="Cloud-shape" stroke="none" fill="#FFFFFF" fill-rule="evenodd" xlink:href="#path-3"></use>
                    </g>
                </g>
            </g>
        </g>
    </g>
</svg>