<?xml version="1.0" encoding="UTF-8"?>
<svg width="320px" height="48px" viewBox="0 0 320 48" version="1.1" xmlns="http://www.w3.org/2000/svg" xmlns:xlink="http://www.w3.org/1999/xlink">
    <!-- Generator: Sketch 46.2 (44496) - http://www.bohemiancoding.com/sketch -->
    <title>img-cloud-mobile copy</title>
    <desc>Created with Sketch.</desc>
    <defs></defs>
    <g id="Cloud" stroke="none" stroke-width="1" fill="none" fill-rule="evenodd">
        <g transform="translate(-81.000000, -2674.000000)" id="img-cloud-mobile-copy" fill-rule="nonzero" fill="#F8F8F8">
            <g transform="translate(81.000000, 2674.000000)">
                <path d="M0,48 L320,48 L320,4.5 C318.2,5.6 316.5,6.8 314.9,8.2 C301.5,9.3 289.5,14.5 281.1,22.1 C278.1,20.1 274.4,19 270.5,19 C263.9,19 258.1,22.3 254.5,27.3 C250.3,26.5 246,26 241.5,26 C240.3,26 239.1,26 237.9,26.1 C233.2,17.1 223.9,11 213,11 C202.2,11 192.9,17.1 188.2,26 C184.5,24.7 180.6,24 176.5,24 C176,24 175.6,24 175.1,24 C170.6,11.2 158.4,2 144,2 C134.9,2 126.6,5.7 120.6,11.7 C116.3,10 111.5,9 106.5,9 C93.8,9 82.7,15.2 76.4,24.5 C74.6,24.2 72.8,24 71,24 C60.1,24 50.6,30.2 46,39.4 C44.5,37.5 42.8,35.8 41,34.3 C41.6,32 42,29.5 42,27 C42,12.1 29.9,0 15,0 C9.4,0 4.3,1.7 0,4.5 L0,48 Z" id="Shape"></path>
            </g>
        </g>
    </g>
</svg>