<?xml version="1.0" encoding="utf-8"?>
<!-- Generator: Adobe Illustrator 22.0.0, SVG Export Plug-In . SVG Version: 6.00 Build 0)  -->
<svg width="320px" height="48px" viewBox="0 0 320 48" version="1.1" xmlns="http://www.w3.org/2000/svg" xmlns:xlink="http://www.w3.org/1999/xlink">
<style type="text/css">
	.st0{fill:#FFFFFF;}
</style>
<title>img-cloud-mobile copy</title>
<desc>Created with Sketch.</desc>
<g id="Cloud">
	<g id="img-cloud-mobile-copy" transform="translate(-81.000000, -2674.000000)">
		<g transform="translate(81.000000, 2674.000000)">
			<path id="Shape" class="st0" d="M0,48h320V4.5c-1.8,1.1-3.5,2.3-5.1,3.7c-13.4,1.1-25.4,6.3-33.8,13.9c-3-2-6.7-3.1-10.6-3.1
				c-6.6,0-12.4,3.3-16,8.3c-4.2-0.8-8.5-1.3-13-1.3c-1.2,0-2.4,0-3.6,0.1c-4.7-9-14-15.1-24.9-15.1c-10.8,0-20.1,6.1-24.8,15
				c-3.7-1.3-7.6-2-11.7-2c-0.5,0-0.9,0-1.4,0C170.6,11.2,158.4,2,144,2c-9.1,0-17.4,3.7-23.4,9.7C116.3,10,111.5,9,106.5,9
				c-12.7,0-23.8,6.2-30.1,15.5C74.6,24.2,72.8,24,71,24c-10.9,0-20.4,6.2-25,15.4c-1.5-1.9-3.2-3.6-5-5.1c0.6-2.3,1-4.8,1-7.3
				C42,12.1,29.9,0,15,0C9.4,0,4.3,1.7,0,4.5V48z"/>
		</g>
	</g>
</g>
</svg>
