<?xml version="1.0" encoding="utf-8"?>
<!-- Generator: Adobe Illustrator 22.1.0, SVG Export Plug-In . SVG Version: 6.00 Build 0)  -->
<svg version="1.1" id="Layer_1" xmlns="http://www.w3.org/2000/svg" xmlns:xlink="http://www.w3.org/1999/xlink" x="0px" y="0px"
	 viewBox="0 0 970 479" style="enable-background:new 0 0 970 479;" xml:space="preserve">
<style type="text/css">
	.st0{fill:#F7F7F7;}
</style>
<path id="Shape" class="st0" d="M278,479c-3.3-2.1-6.7-3.9-9.7-6.4c-3.9-3.2-3.5-8.9-5.8-12.5c-2.9-4.7,1.5-8.8-1.2-12.8
	c-0.5-0.7,0.8-3.1,1.7-4.3c2.5-3.4,4-6.8,2.5-11.1c-0.5-1.4,0.2-3.2,0.5-4.8c0.2-1.3,1.2-2.9,0.8-3.8c-2.8-5,0.9-8.9,2-13.3
	c0.9-4.1,1.4-8.3,2.2-12.4c0.4-2.4,0.2-5.6,1.7-6.8c3.4-2.8,1.9-5.8,2-9c0-5,0.6-10,1.1-14.9c1.1-10-0.7-13.2-11.1-18.7
	c-4.1-2.2-6.7-4.3-7.8-9.2c-1.4-6.6-3-14.2-7.2-18.9c-4.9-5.5-3.8-10.2-4-16.2c-0.2-6.8,1.9-10.8,6.7-14.9c1.9-1.7,2.7-5.1,3.3-7.9
	c0.9-4.4-2.2-10.5-6.1-12.7c-1.1,1.5-2.3,3-3.8,5c-5.1-3.6-9.9-7-14.5-10.6c-1-0.8-1.3-2.6-1.6-4c-0.7-3.7-2.7-5.4-6.5-6.3
	s-7.7-2.9-10.6-5.5c-5-4.6-4.7-4.9-8.5-1.6c-3.9-0.5-7.1-0.4-9.9-1.4c-1.8-0.6-4.1-2.5-4.4-4.2c-0.9-3.7-2.9-5.4-6.3-6.1
	c-4.3-0.8-5.9-3.4-6.2-7.7c-0.2-2.3-1.4-4.8-2.8-6.6c-5.1-6.5-10.6-12.7-15.7-19.2c-1.8-2.2-2.8-5.1-4.1-7.7
	c-0.6,0.2-1.1,0.3-1.7,0.5c0.5,1.8,0.7,3.7,1.6,5.3c2.9,4.9,6,9.8,9.1,14.5c1.2,1.8,2.8,3.3,4,5.1c0.5,0.7,0.4,1.7,0.5,2.6
	c-1,0-2.5,0.4-3-0.1c-2.2-2.1-3.9-4.7-6-6.8c-2.2-2.3-4.6-4.3-7.5-6.9c1.5-2.3,1-4.6-2.2-7.6c-2.5-2.3-3.1-6.5-4.7-9.8
	c-1.4-2.9-2.9-5.2-6.8-5.7c-3.8-0.4-6.8-2.6-6.9-7.2c-0.1-1.6-0.6-3.5-1.5-4.7c-4.6-5.7-4.9-12.1-4.3-18.9c0.3-3.2-0.2-6.6-0.5-9.9
	c-0.5-4.9-3.4-7.5-7.9-9.1c-1.3-0.5-2.1-2.9-2.9-4.5c-1.2-2.3-2.2-4.7-3.5-7c-1.3-2.2-2.9-4.2-4.9-6.1c0.7,2.8,1.5,5.7,2.4,9.3
	c-5.4-1.7-8.3-4-7.8-9.2c0.1-1.2-0.4-3.4-1-3.5c-4.8-0.9-5.9-5.2-8.7-8.1c-2.5-2.6-7.4-3.1-11.4-4.3c-5.6-1.7-11.4-3.1-17.4-4.7
	c-1.1,3.9-2.5,7.4-7.9,5c-1-0.4-2.7,0.9-4.5,1.6c0.2-2,0.3-3.5,0.5-5.1c-0.3-0.2-0.7-0.3-1-0.5c-1.4,2.6-2.9,5.2-4.3,7.7
	c1,0.6,2,1.3,3,1.9c-1.1,1.4-1.9,3.6-3.3,4c-1.8,0.6-4-0.2-6-0.4c-0.2-0.5-0.4-1-0.6-1.5c-1.1,1.4-2.2,2.9-3.4,4.2
	c-0.9,0.9-2.1,2-3.3,2.2c-5.5,1-11,1.8-17.9,2.8c1.5-1.5,2.1-2.5,3-2.9c4.2-2.3,8.6-4.4,12.8-6.8c1.4-0.8,2.6-2.1,4.5-3.8
	c-4.5-0.6-7.7-1.1-11.9-1.6c-0.2-0.7-0.6-2.5-1.2-4.6c-1.9,1.2-3.6,2.3-5.4,3.5c-0.9-1.1-1.7-1.7-2.2-2.6c-1.2-2-3.6-5.5-3.1-6
	c2.1-2.1,5-3.6,7.7-4.9c1.9-0.9,4.1-1.3,6.1-2.9c-7,0.5-14.4,4-19.3-4.3c5.9-5.1,12.2-2.2,19,0c-1.8-5.7-6.2-5.4-9.4-7.1
	c-1.7-0.9-3.1-2.2-4.7-3.4c1.7-1.1,3.2-2.7,5.1-3.3c4.9-1.4,10-2.2,14.9-3.6c1.8-0.5,3.2-2.1,4.6-2.3c4.8,0.3,9.7,0.6,14.5,0.8
	c2,0.1,4.3-0.7,5.9,0.1c5.8,2.6,11.6,2.2,17.6,0.7c0.5-0.1,1.1-0.3,1.5-0.1c4.7,1.9,9.7,3.4,14,6c2.5,1.5,3.8,1.2,5.5-0.4
	c0.8-0.8,1.6-2.1,2.5-2.2c5.8-0.4,11.6-0.6,17.3-0.7c2.2,0,4.3,0.4,6.5,1.2c9.8-5.1,18.5,1.5,28,2.5c-2.5-3.2-5-6.3-7.8-9.8
	c-5.6,7.2-11.8,3.3-18,1c1.1-2.1,2.1-4.5,3.5-6.5c0.7-1,2.3-1.7,3.5-1.9c4.9-0.5,9.9-1.4,14.8-1c3.4,0.3,6.6,2.7,10,3.8
	c2.7,0.8,5.7,1.6,8.4,1.4c4.5-0.4,9.1-1.6,10.2,5c-0.4-2.4-0.7-4.8-1.3-8.1c-3.2,0-6.5-0.5-9.7,0.1c-3.7,0.7-6.7,0.6-8.1-3.8
	c-3.3,1.3-6.5,3-8-2c-0.1-0.4-2.7-0.2-4.1-0.1c-3.4,0.3-6.7,0.6-10.9,1c6.4-7.6,12.4-8.8,19.8-5.2c3.8,1.8,8.1,2.6,12.2,3.9
	c0.2,0,0.4,0.1,0.5,0c4.3-5.5,10-0.5,16.2-2.4c-1.1,3.6-1.9,6.4-2.9,9.7c1.7,0.1,3.5,0.2,5.8,0.3c-0.7,2.8-3.2,6,1.2,7.5
	c2.7,1,5.5,1.9,8.3,2.8c-1.6,7.5-9.3,3.2-13.3,7.7c1.9,0.5,3.1,1.1,4.4,1.1c3.7,0.2,7.3,0.3,11,0.1c1.9-0.1,3.7-0.8,5.6-1.2
	c-0.6-1.7-1.2-3.4-2-5.7c1.9-0.1,3.9-0.2,5.9-0.3c0.7,2.8,1.4,5.4,2.2,8.3c5.2-2.3,5.7-5.6,3.8-9.9c-0.6-1.3-0.2-3.1-0.3-4.6
	c1.6,0.5,3.6,0.6,4.7,1.6c2.5,2.3,4.6,5.1,7,7.8c5.7-1.5,6.3-1.2,7.8,4.5c2-1.7,3.9-3.4,5.7-5.1c0.3-0.3,0.2-0.9,0.4-2.1
	c-2.1-0.3-4.2-0.4-6.1-0.9c-2.2-0.5-5-0.9-6.1-2.4c-1.3-1.7-1.9-6.2-1.1-6.7c3.1-1.8,6.8-2.4,10.3-3.5c0.4,2.2,0.8,4.5,1.3,7.5
	c1-0.8,3-1.8,2.9-2.6c-0.3-3.8,2.3-3.4,4.6-3.6c3.6-0.3,7.3-0.9,10.9-0.8c3,0.2,6.1,1,9,2c6.4,2.2,12.6,4.8,18.9,7
	c2.8,0.9,5.6,1.1,5.1,5.2c-0.1,1,1,2.8,1.9,3.2c5.1,2,10.2,3.7,15.4,5.5c0.2,0.6,0.4,1.1,0.7,1.7c-2.5,1.6-4.9,4.5-7.5,4.6
	c-2.7,0.1-5.5-2.4-8.9-2.8c2.7,3.4,5.4,6.8,8.1,10.2c-3.8,0.7-6.4,1.8-8.9,1.5c-3.5-0.4-7.1-1.3-10.4-2.6
	c-10.5-4.2-10.4-4.3-19.8-3.4c-1.5-5.2-0.9-5.9,4-6.1c1.9-0.1,3.9-1.3,5.7-2.3c1.7-0.9,3.1-2.3,4.9-3.6c-1.3-0.8-2.4-1.4-2.8-1.6
	c-3.3,1.7-6,3.1-8.8,4.5c-0.3-0.5-0.7-1-1-1.5c0.8-1.1,1.9-2.1,2.3-3.3c0.3-1-0.1-2.9-0.8-3.2c-5-2.5-9.8-1.4-14.6,0.4
	c1.4,2.2,2.5,3.9,3.6,5.6c-3,1.2-5.8,2.7-8.9,3.5c-1.9,0.5-4-0.2-6,0.3c4.2,1.7,8.4,3.2,12.4,5.1c1.5,0.7,2.5,2.2,3.7,3.5
	c0.1,0.1-1.5,2-1.8,1.9c-1.3-0.5-2.3-1.8-3.7-2.2c-1.4-0.5-3-0.7-4.4-0.4c-2,0.4-3.9,1.5-5.5,2.1c-0.7-2.3-1.3-4.1-1.8-5.9
	c-0.4,0.1-0.7,0.1-1.1,0.2c-0.5,1.4-1,2.8-1.6,4.4c-8.6-4-12.2,3.8-16.3,8.1c-1.8,1.9,1,8.2,1.5,10.9c5.3,1.7,8.9,3,12.5,3.8
	c3.8,0.8,7.8,1.6,11.7,1.5c2.9,0,4.2,0.5,5,3.4c0.6,2,0.5,5.2,4.2,4.3c0,1.8,0,3.7,0,6.1c1.7,0,3.8,0.6,4.9-0.2
	c0.8-0.6,0.8-3,0.4-4.5c-0.6-2.6-1.6-5.2-2.1-6.5c2.8-1.2,7.2-2.3,7.1-3.1c-0.3-3.1-1.9-6-3-9c-0.4,0.1-0.8,0.3-1.3,0.4
	c0.6-1.2,1.4-2.3,1.8-3.5c0.7-2.4,0.7-6.7,1.9-7.1c3.5-1,7.5-0.9,11.2-0.5c2,0.2,3.8,2,5.7,2.9c1.8,0.8,3.7,1.3,5,1.7
	c0.2,2.4-0.4,5.3,0.6,6c5.6,3.8,8.6-0.6,11.3-4.9c5.6,3,7.4,8.3,10.1,12.9c0.6,1,1.7,2.8,2.3,2.7c4.8-0.9,6.7,2.7,9.3,5.3
	c1.4,1.3,3.3,2.1,5.2,3.3c-1.2,2.7-2.5,5.6-4,8.9c3.9,2.9,10.6,3.1,10.6,10.4c-5.7-0.3-11.4-0.6-17.9-0.9c2.2-4.4,4.2-8.3,6.2-12.2
	c-0.4-0.3-0.7-0.6-1.1-0.9c-5.4,2.9-10.8,5.8-16.4,8.9c-0.2-1.1-0.5-2.5-0.8-4c-9.8-1.4-15,0.6-16.6,7.3c2.9-1,5.5-1.8,7.9-2.8
	c5.8-2.4,7.5-1.3,6.9,4.7c-0.1,0.6,0.4,1.2,0.7,2.1c1.3-0.5,2.4-1,3.6-1.5c-0.1,0.5-0.2,1-0.2,1.5c2.1,0.4,4.1,0.8,6.2,1.1
	c0.2-0.4,0.3-0.9,0.5-1.3c0.9,1.5,1.8,3,3.1,5.1c-2.3,0.8-4.1,1.6-5.9,2.1c-2.5,0.8-5.3,1.2-7.6,2.3c-5.5,2.7-5.4,2.8-6.7-3
	c-10.4,4.4-10.4,4.4-8.5,12.3c-1.3,0.1-2.5,0.4-3.8,0.4c-5.5-0.1-7.9,1.9-9.8,7.3c-0.4,1.3-2.2,2.1-4,3.6c0.1,0.3,0.4,1.6,1,2.7
	c1.6,2.8,0.5,3.9-2,5.8c-4.7,3.6-8.7,8.1-12.6,12.5c-0.8,0.9-0.1,3.3,0.2,5c0.7,3.4,1.9,6.6,2.4,10c0.2,1.4-1,3.1-1.6,4.6
	c-0.5,0-1.1,0.1-1.6,0.1c-2.4-4.7-4.9-9.3-7.6-14.5c0,0-1.2,0.6-2.1,0.2c-6.6-2.7-8.2-2.6-14.4,1.1c-0.8,0.5-2.2,0.1-3.2-0.3
	c-4.6-2-8.8-2.3-12.5,2.1c-1.5,1.8-4,2.9-5.4,3.9c0,5.6,0.4,10.6-0.1,15.4c-0.6,6.4,4,9.6,7.5,13.3c2.3,2.4,10-1.6,10.6-4.9
	c0.3-1.5,1.5-3.7,2.6-3.9c2.7-0.4,5.6,0.2,8.4,0.5c-0.3,2.1-0.6,4.2-1,6.3c-0.4,1.9-0.8,3.7-1.3,5.5c-0.4,1.7-0.8,3.5-1.4,6.1
	c2.6-0.2,5.2-0.1,7.5-0.8c3.8-1,7.7,2.2,7.1,6.2c-0.5,3.4-1,6.9-0.9,10.3c0.1,5,4.1,7.3,8.4,4.8c2.8-1.6,5-2.1,7.4,0.8
	c2.7,3.2,4.1,0.1,5.2-1.7c2.9-4.8,7.5-7,12.8-9.8c-0.8,4-1.4,6.9-2,9.9c0.3,0,0.6,0.1,0.9,0.1c1.9-2.6,3.8-5.3,6.2-8.6
	c1.5,2.6,2.3,4.1,3.4,5.9c3.2-2.5,5.8-1.6,7.5,1.9c3.6-5.1,5.2-5.2,10.1-0.7c0.9-0.8,1.8-1.7,3.4-3.2c-0.7,2.9-1.1,5-1.4,6.4
	c4,3.2,7.9,6.2,12.1,9.5c5.4-3.4,8.9,0.1,12,4.8c2.6,3.9,5.5,7.6,8.6,11.9c-3.3,2-6.1,3.6-8.9,5.3c0.1,0.5,0.3,0.9,0.4,1.4
	c1.6-0.5,3.2-0.9,4.7-1.4c1.7-0.6,3.3-1.2,4.9-1.8c-0.5,1.9-0.9,3.9-1.5,5.8c-0.2,0.7-1.1,1.1-1.8,1.6c0.3,0.3,0.5,0.6,0.8,1
	c0.9-0.8,2.2-1.5,2.6-2.5c1.5-4,4.3-4.3,7.6-2.7c2.4,1.2,4.6,2.8,7,3.8c2.2,0.9,4.6,1.1,6.9,1.6c0.3,0.1,0.7-0.2,1-0.2
	c2.9,0.1,16.8,10.6,16.4,13.2c-0.9,5.2-2.6,10.3-4.6,15.1c-1,2.3-3.6,3.9-5.1,6.1c-1,1.4-1.8,3.3-2,5c-0.4,4.6,0.2,9.4-0.6,13.9
	c-0.6,3.3-3.2,6.2-4.2,9.4c-1.3,4.4-4.9,4.1-8.1,5.2c-4.2,1.5-8,4-11.8,6.3c-0.8,0.5-1.8,2.3-1.5,2.9c3.6,7.4-3.9,9.6-6.5,14.1
	c-0.8,1.4-1.6,2.8-2.5,4.2c-2.5,3.6-4.6,7.7-7.8,10.5c-3.7,3.3-7.7,0.6-9.7-6.1c-1.8,2.6-2.3,4.7,0.7,6.8c1.5,1,3.7,3.6,3.3,4.2
	c-1.8,3.2-4.2,6.1-6.7,8.7c-0.7,0.7-2.6,0.6-3.9,0.5c-4.7-0.4-7.5,0.7-5.6,6.8c-2.7-0.6-4.7-1-6.7-1.4c-0.3,0.3-0.7,0.6-1,0.9
	c1.2,1.4,2.4,2.9,4,4.8c-3,3.8-6.5,8.1-10.4,12.8c2.2,0.6,3.7,1.1,6.6,1.9c-2.4,3-4.3,5.6-6.4,8c-2,2.3-5.9,3.7-4.4,7.6
	c1.6,4.2,3.8,8.3,9.3,8.6c0.6,0,1.2,0.4,2.9,0.9c-4.7,1.4-8.5,2.5-12.3,3.7C278.7,479,278.3,479,278,479z M249.5,148.1
	c-2.3-5.9-3-6.2-14.3-6.3c-2,0-4.7,1.1-5.9,2.6c-2.3,3-1.2,11.9,2.1,15.7c0.2-3.5,0.2-6,0.4-8.5c0.3-4,2.2-6.9,6.3-6.8
	c4.3,0,3.5,3.3,3.2,6.2c-0.1,0.9,0.8,1.9,1.2,2.9c0.5,0,1,0.1,1.6,0.1c0.6-2.7,1.2-5.4,1.8-8.3C246.9,146.3,247.8,146.9,249.5,148.1
	z M217.5,137.9c6.6,0.4,11.4,0.8,16.3,0.9c0.7,0,1.8-0.9,2-1.6c0.2-0.6-0.6-1.7-1.3-2.2c-1.8-1.4-3.7-2.6-5.7-4
	c-1.8,1.2-3.4,2.3-5.1,3.3C222.1,135.3,220.4,136.3,217.5,137.9z M260.3,150.1c-5.9-2-14.9,3.5-16.9,10.5
	C249.2,156.9,254.6,153.6,260.3,150.1z M362,1c-3.6,0.6-7.2,1.2-10.8,1.7c-8,1.3-16.1,2.3-20.4,10.7c-0.2,0.4-0.8,0.5-1.4,0.8
	c-0.9-1.5-1.9-2.9-3.4-5.3c-0.9,2.5-1.6,3.9-1.8,5.4c-0.8,5.3-3.1,6.8-8.1,5.2c-1.9-0.6-3.8-1-5.7-1.5c-9.6-2.3-14.3,7.3-22.2,9.2
	c-0.5,0.1-0.6,1.9-1.2,2.6c-1.1,1.3-2.3,2.5-3.7,3.5c-0.9,0.7-2.6,0.8-2.9,1.6c-1.5,3.9-4.7,4.2-8.1,4.6c-1.3,0.2-2.6,0.7-4.3,1.2
	c3.4,1.9,6.6,2.9,8.4,5c3.2,3.7,5.1,2.8,6.9-0.6c1.5,0.5,3.2,1.7,4.5,1.4c6.6-1.3,12.6,0.8,18.2,3.6c2.1,1.1,3.8,3.8,4.8,6.1
	c1,2.4,1,5.2,1.5,8.4c5.5-5.3,5.5-5.3,7.4-3.2c-1.9,1.9-4.4,3.5-5.4,5.7c-0.5,1,2,3.4,3.5,5.5c-1.9,4-1,7.9,3,11
	c0.7,0.5,1.2,1.5,1.4,2.3c1.6,5.5,10,11.4,13.8,10.5c2.1,1.2,4.4,3.2,5,2.9c1.9-1.5,3.6-3.6,4.8-5.8c1.8-3.3,3.2-6.9,4.8-10.3
	c0.2-0.3,0.9-0.5,1.3-0.6c3.3-0.9,6.6-1.6,9.8-2.7c1.8-0.6,3.5-1.7,5.1-2.9c1.5-1.1,2.6-3.5,4.2-3.9c6.8-1.4,13.8-2.1,20.7-3.1
	c-0.2-1.8-0.3-2.7-0.3-2.8c2.1-0.7,4.2-0.9,5.3-2c0.6-0.6-0.4-2.9-0.7-4.4c-0.4-2.5-0.8-5-1.3-8.3c4.1,1,7,1.7,9.5,2.3
	c0.9-4.3,1.8-7.9,2.6-11.8c-4.4-1.2-3.4-4.6-1.3-7.1c3.3-3.9,7.4-7.1,11.1-10.6c1.7-1.6,3.3-3.3,5.1-5.1c-6.2-3.9-8.8-3.5-13.9,1.3
	c-3.5,3.3-6.9,3.8-8.4,0.9c-2-4-3.8-8.3-5-12.7c-0.8-3-1.7-4.4-5-3.9c-5.3,0.8-10.7,1.3-16.1,2c0-0.2,0-0.3,0-0.5
	c1.6-0.6,3.2-1.2,6.2-2.3c-6-1.6-10.8-2.9-15.5-4.1C363.3,1,362.7,1,362,1z M735.3,41.6c4.9,5.1,9.4,5.4,15.8,2.1
	c2.6-1.3,6.4-2.8,8.5-1.8c6.9,3.3,13.9,0.4,20.7,1.9c2.5,0.6,4.9,1.6,7.3,2.4c-0.9,2-1.8,4.1-2.9,6.7c1.3,0.2,2.8,0.3,4.3,0.5
	c5.2,0.8,10.4,1.8,15.6,2.5c1.7,0.2,3.6,0.1,5.3-0.3c4.8-0.9,9.6-2,14.4-2.8c3.4-0.6,4.8,1.2,4.9,4.6c0.3,5.6,2.7,6.8,7.5,3.8
	c0.9-0.6,2-1,3.1-1c5-0.2,10.2,0.3,15-0.8c1.8-0.4,3-4.1,4.1-6.5c0.1-0.3-2.6-2-4.1-2.8c-1.2-0.5-2.7-0.3-3.8-0.9
	c-0.6-0.3-1.1-1.7-0.9-2.5c0.2-0.7,1.3-1.7,2-1.7c5.5,0.3,11,0.8,16.5,1.4c1.6,0.2,3,1.3,5.8,2.7c-4,1.4-6.6,2.3-9.7,3.5
	c4.5,2.8,8.5,5,13.7,4.1c2-0.4,4.7,0.5,6.3,1.8c3.8,2.9,7.7,4.1,12.5,3.6c6.7-0.6,13.7-1.5,19.3,4.1c0.9,0.9,3.2,0.4,4.8,0.4
	c2.7-0.2,5.3-0.7,7.9-0.8c4.8-0.1,9.8-0.8,13,5c1.2-1.9,1.8-3.4,2.8-4.2c1.3-0.9,3-1.8,4.5-1.7c4.2,0.3,8.4,1.5,12.6,1.7
	c6.1,0.3,7.4,1.5,7,7.6c-0.1,0.8,0,1.7,0.2,2.5c0.7,5.1,0.7,5.1-3.9,8.1c1.4,1.8,2.7,3.6,4.6,6.1c-2.7,0-4.9-0.2-7,0
	c-1.8,0.2-3.7,0.5-5.3,1.3c-8.9,4.4-18.1,7.2-28.3,5.9c-3.9-0.5-6.1,3.1-6.1,6.1c0,6.4-2.1,10.7-7.5,14.4
	c-4.5,3.2-7.8,8.1-11.7,12.2c-0.5,0.6-1.2,1-2.3,1.4c3.3-5.8,1.6-11.2-0.3-16.8c-1.4-4.1,2.9-9.4,8.4-12.3c4.1-2.2,8-4.6,11.5-7.9
	c-1.9,0.7-3.8,1.3-6,2.1c-0.5-1.9-0.9-3.4-1.6-5.9c-1.8,0.9-3.6,1.5-5,2.5c-2.3,1.6-4.6,3.3-6.6,5.3c-4.1,4.3-7.9,3.8-13.7,2.3
	c-7-1.8-15.6-1.5-22.4,1c-6.8,2.6-12.2,9-18.9,14.3c7.1,1,13.4,1.7,19.6,2.8c0.9,0.2,2.4,2.4,2.2,2.6c-2,2.5,0,4,1,6
	c0.7,1.6,1.1,3.6,0.8,5.3c-0.7,3.7-1.9,7.4-3.1,11.7c-6.5-5.2-0.9-13.3-4.9-20.4c0,14.7-10.9,21-18.6,29.4c-1.1,1.2-4.4,0.5-6.8,0.6
	c-0.2-0.4-0.3-0.8-0.5-1.2c-3.6,3.9-7.2,7.8-11,12.1c0.7,1.5,1.3,3.4,2.3,5c2.7,4.3,2,9.6-2.1,12c-1.3,0.8-3.3,0.3-5,0.5
	c0-1.5-0.2-2.9-0.1-4.4c0-0.6,0.8-1.2,0.7-1.8c-0.1-1.4,0-3.4-0.8-4.1c-0.8-0.7-2.7-0.2-4.3-0.2c-0.1-2.8-0.3-5.7-0.4-9.2
	c-3.1,1.8-5.4,3.1-8.5,4.9c0.3-3.1,0.5-5.2,0.7-7.4c-3,2-6.1,3.8-8.8,6c-0.6,0.5-0.6,2.9,0,3.6c1.2,1.2,3,2,4.7,2.5
	c2,0.6,4.2,0.7,6.3,1c-1.9,1.9-3.7,3.7-5.6,5.6c-0.4,0.4-1,0.7-0.4,0.3c1.9,6.7,3.8,12.7,5,18.8c0.4,2-0.8,4.8-2.1,6.6
	c-3.7,4.7-7.3,9.8-11.9,13.3c-3.9,3-9.1,4.6-13.9,5.8c-4.3,1.1-4.9,1.7-4.2,6.2c0.3,2.3-1.4,4.9-2.3,7.3c-0.1,0.3-1.8,0.4-2.1,0.1
	c-0.8-1-1.8-2.3-1.6-3.4c0.3-2.3,1.5-4.4,2-6.6c0.2-1.1-0.3-2.4-0.6-3.5c-1.1,0.4-2.5,0.4-3.3,1.2c-5.9,5.4-5.5,6.3-0.8,12.6
	c3.9,5.2,9.6,10.2,6.4,18.1c-0.5,1.2-1,3.2-1.8,3.4c-6.8,1.5-7.6,8.1-11.2,13.2c-3.4-7.8-4-16.6-12.5-20.7
	c-0.9,3.4-1.7,6.5-2.7,10.2c-6.1-6.7-3.7-14.5-5.2-21.7c-7.2-0.1-4.6,8.5-10.4,10.9c2.8-11.6-0.1-21.3-7.3-29.1
	c-2.9,0.8-5.8,1.3-8.6,2.4c-2.2,0.8-4.4,2-6,3.6c-4.4,4.2-8.7,8.5-12.8,13.1c-1.3,1.5-2.7,4.1-2.3,5.9c2.1,9.9-3.8,16.9-7.9,24.4
	c-0.9-0.2-1.4-0.2-1.4-0.4c-3.7-9.2-7.8-18.2-10.8-27.6c-1.9-5.9-2.1-12.2-3.1-18.1c-1.5,0.4-4.1,1.9-5.5,1.2s-1.5-3.7-2.2-5.7
	c-0.4-1-0.5-2.4-1.3-3c-1.4-1.1-3.3-1.6-4.6-2.7c-1.3-1.1-2.2-2.7-3.5-4.4c-5.9,5.4-12.4,3.3-18.8,2.6c-0.8-0.1-1.8-0.4-2.2-0.9
	c-2.8-3.6-5.4-7.3-10.5-3.3c-3.8-3.1-7.7-6.1-11.3-9.4c-1.1-1-1.5-2.9-2.3-4.5c-4,1.5-4.6,3.8-2.5,7c3,4.7,5.9,9.5,9.1,14.1
	c0.5,0.7,2.8,0.9,3.6,0.4c2.5-1.6,4.7-3.6,6.3-4.9c2.8,1.9,5.3,3.8,7.9,5.4c3.3,2,4.3,3.7,2.3,7.9c-5.2,11.3-13.9,17.7-25.4,21.5
	c-4.5,1.5-8.6,4.5-13,6.2c-5.1,1.9-6.7,1-7.6-4.3c-1.3-7.8-2.9-15.4-9.4-20.9c-0.9-0.8-1.2-2.3-1.8-3.5c-2.6-6-5.2-12-7.6-18.1
	c-1.2-3.2-3-3.5-6-1.9c1.4,3.7,2.1,7.8,4.2,11c3.2,4.7,2.1,9.9,2.8,14.8c0.2,1.3,0.1,3.3,0.9,3.7c5.1,2.8,7.3,7.8,10.5,12.1
	c3.3,4.4,8,7.9,7.3,14.4c-0.1,0.6,2.2,2.1,3.2,2c2.4-0.4,4.7-1.5,7-2.4c3.8-1.4,7.6-2.8,11.4-4.2c0.5,0.4,0.9,0.8,1.4,1.3
	c-1.3,4.3-2.3,8.8-4,12.9c-1.9,4.6-4.2,9-6.7,13.3c-1.1,1.9-2.8,3.9-4.7,5c-8.9,5-13,14.1-18.3,22c-3.6,5.4-0.5,11.4,2.1,16.8
	c0.8,1.7,1,3.8,1.3,5.7c0.1,0.8-0.5,1.7-0.3,2.4c2.6,8.1-2.3,12.8-7.6,17.4c-0.1,0.1-0.3,0.2-0.4,0.3c-4.4,4.3-9.2,8.4-6,15.7
	c0.7,1.6,0.4,3.6,0.6,5.8c-1,0.5-2.1,1.3-3.4,1.6c-4.4,1.1-7.3,2.7-3.7,7.8c0.6,0.8-0.4,3.2-1.2,4.4c-3.2,4.3-6.7,8.3-9.9,12.5
	c-2.8,3.6-6.4,4.7-10.8,5.1c-3.8,0.3-7.7,1.5-11.2,3c-3.9,1.7-7.8,0.7-8.2-3.6c-0.8-7-2.9-13.2-6.9-19c-1.1-1.6-1.2-4.6-0.5-6.5
	c1.7-4.4,0.5-7.5-2.2-11c-5-6.6-9.1-13.8-8.4-22.4c0.3-3.6,2.3-7.1,3.5-10.6c0.5-1.3,1.9-2.8,1.6-3.9c-2-8.7-4.3-17.3-6.5-25.9
	c-0.2-0.9-0.7-2.1-1.5-2.6c-8.3-4.9-3.8-11.2-1.9-17.1c1-3.2,1.2-3.4-3.9-6.9c-0.8,0.5-1.8,1.1-2.7,1.7c-3.1,2-5.1,1.4-6.6-2.1
	c-3.5-7.7-8.9-8.7-14.9-2.7c-2.9,3-6.3,3.2-10.1,2.7c-4.1-0.5-8.5-1.4-10.8,4.3c-5.3-3.3-9.2-7.4-11.1-13.1
	c-1.9-5.4-4.9-9.2-10.6-10.8c-3.2-0.9-3.4-3.7-4.4-6.8c-1.8-5.9,1.6-9.6,3-14.3c0.8-2.8,0.3-6.3-0.6-9.2c-1.1-3.6-1.3-6.7,0.7-10
	c0.8-1.4,1.4-3,1.8-4.6c1.2-6.5,4.9-10.5,10.9-13.2c1.9-0.8,3.6-3.8,3.9-5.9c1.2-9.1,7.8-15,17-15.3c3-0.1,6.1-1.6,8.8-3
	c5.5-2.7,11-4.6,17.2-4.2c2.9,0.2,5.9-0.6,8.9-0.9c1-0.1,2.3-0.6,2.9-0.2c2,1.6,4.4,3.3,5.3,5.5c0.5,1.1-1.7,3.4-3.4,6.4
	c1.6,1.2,4,3.5,6.9,4.9c4.7,2.4,9.9,3.9,14.3,6.6c3.6,2.2,5.7,1.6,7-1.9c1.8-4.6,4.2-5.9,9-3.8c2.7,1.2,6.2,0.5,9.3,0.9
	c1.5,0.2,3,1.1,5.4,2.1c2.3,0.2,5.7,0.8,9.1,0.9c1.3,0,3.2-0.4,3.9-1.3c3.8-4.7,5.4-10.1,4.8-15.3c-5.5,0-10.7,0-15.8,0
	c-4.8,0-10.4-5.3-10.7-10.1c-0.1-1.8-0.5-3.5-0.9-6.1c-2.7,1.7-4.7,3-6.8,4.3c4.2,6.4,2.4,10.1-7.1,13.8
	c0.7-16.6-10.9-24.5-22.5-32.2c2.4,7.8,9.4,11.2,15.3,16.3c-5.4,1.8-1.6,6-2.6,10.2c-1.3-1.7-2.7-2.6-2.9-3.8
	c-1-4.9-4.6-6.7-8.7-8.7c-2.9-1.5-5.6-4-7.6-6.7c-2.1-2.9-4-3.3-6.6-1.4c-2.7,2.1-5.4,2.8-8.8,1.6c-0.9-0.3-2.6,1.3-3.7,2.3
	c-1.6,1.3-3.1,2.9-4.5,4.3c-1.8,1.8-4.5,3.5-5.1,5.7c-1.7,5.8-3.8,8.2-9.7,9.2c-2.1,0.4-4,1.4-5.8,2c-2.2-0.9-5.2-1.5-7-3.2
	c-2-1.9-3.8-4.7-4.3-7.3s1-5.6,0.9-8.4c-0.2-5.5,1-7.1,6.4-6.8c3.3,0.2,6.6,0.5,10,0.8c2.8,0.3,4.9-0.1,5.6-3.4
	c0.7-3.2,1.4-6.4-2.1-8.4c-2.2-1.2-4.7-2.1-7.6-3.4c6.1-3.9,13.5-3.2,18.9-7.1c-0.2-0.4-0.3-0.8-0.5-1.2c-6.9,0-13.8,0-20.7,0
	c-0.3-0.7-0.6-1.4-0.9-2c2.6-2.8,5.1-5.6,7.8-8.5c-2.8-1.9-6-3.4-8.2-5.8c-3.9-4.2-3.5-5.5,1.6-7.6c6.5-2.7,8.7-2.7,13.9,0
	c0.1,0.3,0.3,0.7,0.2,0.9c-3.6,6.7-3.4,7.2,2.5,12.5c2.2,2,3.8,4.8,6.3,8.2c2.1-1.4,4.6-3.3,7.3-4.7c2.9-1.5,5.9-2.7,9-4
	c-2.7-6.3-0.7-10,6.3-9.4c0.2,0.3,0.5,0.6,0.5,0.8c-0.5,7.4-0.5,7.4,6.9,7.2c6.3-0.2,12.5-0.5,19.1-0.8c0.5-6.1,1.5-12.5,12.3-7.6
	c-0.4-0.7-0.7-1.3-1.1-2c-1-1.1-2-2.3-3.6-4.2c6-0.5,11.4-1,16.9-1.5c-0.7-4.7-3.8-4.1-6.6-3.8c-2.3,0.2-4.8,0.1-6.8,0.9
	c-3.1,1.2-5.2,2-7-2.2c-1.7-3.9-1.9-6.4,2.1-8.7c2.9-1.7,5.5-3.9,7.7-6.9c-2.9,0-5.7,0-8.9,0c-0.6,5.3-3.2,8.7-8.7,9.8
	c-1.5,0.3-2.8,2-4.2,3.1c1,1.1,2.3,2,2.8,3.3c0.6,1.4,0.9,3.3,0.4,4.6c-1.1,2.8-2.6,5.4-4.3,8c-0.7,1-1.8,2.1-3,2.4
	c-3.5,1.1-7,1.8-10.6,2.6c-1.1-4.2-2.1-8-3.2-12.5c-1.3,1.2-2.3,2-3.1,2.9c-3.5,4-9.1,3.1-11-1.9c-2.9-7.5-0.2-15.5,7.4-18.4
	c7.7-2.9,13.1-8.1,19.3-13.3c10.9-9.2,23.9-16.3,39.2-8.1c3.8,2,7.8,3.8,11.8,5.3c2.7,1,5.8,1.7,8.7,1.5c7.5-0.5,8.6-0.3,14.1,5.6
	c-6.3,4.2-12.8,5.7-20.1,2.7c1,2.5,1.9,4.6,2.4,5.7c3.3,0.4,6.1,1,8.9,0.9c1.1,0,2.1-1.6,3.3-2.4c2.7-1.7,5.4-3.5,8.3-5
	c0.4-0.2,1.8,1.5,2.7,2.4c0.2-3.2,0.1-6.4,0.9-9.3c0.2-0.6,3.8-0.3,6.3-0.4c-0.5,2.7-0.8,4.6-1.2,6.8c6.5-4.8,13.6-5.1,20.8-5.4
	c2.9-0.1,5.7-0.7,8.6-0.8c1.6-0.1,3.2,0.4,4.7,0.3s3.5-0.3,4.4-1.3c3.2-3.4,6.6-2.9,10.5-1.6c4.3,1.4,8.7,2.4,13.1,3.6
	c0.2-0.5,0.5-0.9,0.7-1.4c-1.4-1.2-2.8-2.3-4.2-3.5c-2.2-1.9-2.8-3.5,0.1-5.4c1.9-1.2,3.4-3.2,5.3-4.4c1.7-1.1,4.3-2.8,5.6-2.2
	c2.7,1.2,6.1,2.5,4.8,7.3C672.1,65,674,68.9,673,72c-0.8,2.8-3.9,4.9-5.9,7.4c0.4,0.4,0.7,0.9,1.1,1.3c2.4-2,5-3.7,7.2-5.9
	c2.5-2.6,4.3-6.5,8.7-2.2c0.7,0.7,2.7,0.1,4.2,0.1c-1.3-6.9-3.2-7.3-11.9-2.1c1.3-5-3.1-10.2,3.3-14.3c0.1,1.5-0.1,2.6,0.3,3.5
	c0.4,1.1,1.3,2,2,3c0.8-0.9,1.9-1.7,2.3-2.7c2-5,3.8-5.4,7.8-1.6c0.1,0.1,0.2,0.3,0.3,0.4c2.1,1,4.4,1.7,6.1,3.2
	c1.4,1.2,2.2,3.2,3.8,5.8c1.6-4.2,0.8-6.3-2.2-7.9c-2.2-1.2-4.3-2.6-6.9-4.1c1.2-0.9,1.7-1.5,2-1.4c8.1,1.1,14.8-2.4,21.6-6
	c1.3-0.7,3-1.2,4.3-0.9C727.1,48.5,731.8,46.6,735.3,41.6z M621.9,146.5c-4.2-7.8-5.4-8.1-12.3-4c-0.9,0.6-2.2,1.1-3.2,0.9
	c-2.8-0.6-5.9-1.1-6.4,2.4c-0.4,2.6,0.3,5.9,1.8,8c2.4,3.3,5.9,5.8,9.3,8.9c-1.3,1.1-2.6,2.4-4.1,3.3c-3.3,2-3.8,5.1-0.7,6.8
	c3,1.6,6.5,2.6,9.8,3c3.6,0.5,5.6-1.2,4.2-5.4c-1.1-3.5-1.7-7.2-2.7-12.1c-1.6-1.8-4.3-4.7-7.2-7.8
	C611.4,142,618.6,150.2,621.9,146.5z M572.6,146.3c0.7-0.9,1.5-2,2.2-3c-0.4-0.4-0.7-0.7-1.1-1.1c-3.2,2.8-6.3,5.6-9.8,8.6
	c-1.6-2.6-2.6-4.5-3.8-6.3c-1.6-2.4-3.8-2.5-5.1-0.1c-3,5.6-9.5,10-6.1,18.3c4.4-1.5,9.1-3.4,14-4.5c2.4-0.5,5.6-0.3,7.6,1
	c3.7,2.4,7.3,3,11.4,2c1.4-0.3,2.8-1.3,4.1-1.9c-0.8-1.6-1.1-3.6-2.3-4.6C580.3,151.7,576.6,149.3,572.6,146.3z M565.7,295.7
	c-0.4-0.4-0.8-0.9-1.2-1.3c-1.5,0.5-4.1,0.6-4.3,1.5c-0.7,2.3-0.5,5-0.7,7.5c0.8,0.2,1.5,0.3,2.3,0.5
	C563,301.2,564.4,298.5,565.7,295.7z M864,341.3c0.8,4.8-0.8,8.6-2.9,12.6c-3.5-2.4-6.2-4.8-9.4-6.4s-4.2-3.1-2.5-6.5
	c0.7-1.3,0.9-4.3,0.1-4.8c-3.1-2.2-8,1.6-10.7-2.9c0,0-0.3,0.1-0.7,0.4c-0.4,1-1,2.2-1.6,3.6c-1.3-1-2.2-1.8-3-2.5
	c-1.8,3.5-3.5,6.6-5.1,9.8c-0.9-0.2-1.5-0.2-1.8-0.5c-5.4-4.9-5.6-4.8-9.4,2.1c-0.6,1-2.2,2-3.3,1.9c-7.1-0.2-7.1-0.3-6.6,7
	c0.1,1.5,0,2.9,0,4.3c-3,0.9-5.8,2.6-8.6,2.6c-7.4,0-11,5.4-15.2,9.9c-2.1,2.2-2.1,4.7,0.8,6.8c1,0.7,2.3,2.2,2.1,3
	c-1.6,6.8,3.9,11.2,5.7,16.8c0.9,2.7,1.7,4.5-0.8,6.4c-3.4,2.5-2.2,5.2,0.4,6.8c1.8,1.1,5.2,1.7,6.8,0.7c5.2-3.3,10.3-4,16.2-0.9
	c1.1-6.4,2.2-12.1,10.3-10.4c0.8,0.2,1.9-0.6,2.7-1.1c5.9-4,10.2,1,14.7,3.1c1.6,0.8,1.8,4.6,2.9,7.8c2.2-2,4.6-4,6.9-6.1
	c-0.2,0.5-0.4,1-0.7,1.4c7.2,4.9,7.7,15.2,16.4,18.5c1.8-0.6,3.6-2,5.2-1.7c5.6,1.2,12.8-1.7,14.6-6.9c1.8-5.2,4.7-9.4,8.6-13.1
	c3.6-3.4,5.1-7.1,2.8-12.4c-3.8-8.5-6.6-17.5-9.9-26.2c-0.3-0.8-1.2-1.9-1.9-2c-7.7-1.3-10.9-6-11.1-13.5c0-0.7-0.7-1.5-1.2-2.2
	c-3.2-5.1-6.4-10.2-10.4-16.7C864.1,334.3,863.4,337.9,864,341.3z M886.8,328.3c-4.9-7.9-9.6-16.1-17.2-21.6
	c-6.3-4.5-13.1-8.1-21.7-6.7c-3.3,0.5-7-1.8-10.5-2.9c0-0.5,0-1.1,0-1.6c-1.4,1.2-2.8,2.5-4.5,4c2.9,1,5.1,1.8,7.3,2.5
	c-1.1,2.4-1.9,4.3-2.7,6.3c8,1.6,15.8,2.4,19.5,10.4c-1.3,1.3-2.3,2.4-2.4,2.5c2.7,2,5.3,3.3,7.1,5.3c2.3,2.5,3.9,2.8,5.7-0.2
	c0.5-0.9,1.1-1.7,1.6-2.5c2.9-4.3,5.5-4.1,7.7,0.4c2.1,4.3,5.6,6.2,10.9,7.2C887.1,329.8,887.2,328.9,886.8,328.3z M792.1,278.1
	c-5.2,4.3-10.1,8.2-15.2,12.3c-0.7-0.2-2-0.7-3.4-1.2c-1.3,12.2,4.9,19.1,16.6,19.1c2.9,0,4-1.1,4.2-4.1c0.2-2.5,0.7-5.5,2.3-7.1
	c2.9-2.9,3.7-5.6,1.9-9.2c-1.6-3.2-1.6-6,1.2-7.5c-1.3-2.5-2.5-4.7-4.3-8.2C793.9,274.7,792.8,276.8,792.1,278.1z M610.7,344.5
	c0.1-0.8,0.4-1.8,0.1-2.5c-1-2-2.2-3.8-3.3-5.7c-1.3,1.3-2.5,2.8-3.8,4c-2.9,2.8-6,5.4-8.8,8.2c-1.3,1.3-3.1,3-3.1,4.5
	c-0.1,7.3,0.2,14.6,0.8,21.8c0.1,1.8,1.9,4.9,2.6,4.8c2.3-0.3,5.1-1.3,6.6-2.9c1.5-1.7,1.7-4.6,2.4-6.9c2.5-8.4,4.9-16.8,7.4-25.2
	C611.3,344.6,611,344.6,610.7,344.5z M734.6,279c1.1,1.4,2,2.9,3.3,4.1c5.8,5.3,10.3,11.2,10.5,19.6c0.1,4.7,2.6,8,7.6,9.2
	c1.8,0.4,3.6,1.7,4.9,3.1c3.7,4.1,6.8,8.9,13.5,6c0.4-0.2,1.1,0.7,1.7,0.8c4.1,1.1,8.3,2.1,12.4,3.1c0.3-0.6,0.6-1.2,0.9-1.8
	c-1.2-1.2-2.1-3.1-3.5-3.4c-3-0.8-6.2-1.3-9.2-1c-8.9,1.1-13.8-4.7-10.9-13.1c0.3-1-0.4-2.9-1.3-3.7c-5-5-10.2-9.7-15.2-14.6
	c-4-4-8-8-13.5-9.6C735.3,278.1,734.9,278.5,734.6,279z M857.9,166.1c-0.9,6-7.6,13.4-13.2,12.7c-5.6-0.7-9.1,1.5-12.7,4.6
	c-1.2,1-2.3,3.3-1.9,4.6c0.4,1.8,2.3,3.3,3.5,4.9c1.1-1.5,2.2-3,3.3-4.5c0.2-0.2,0.5-0.4,0.5-0.4c1.9,0,3.7,0.5,5.1-0.1
	c4.2-1.9,8.2-4.1,12.3-6.2c4.1-2.1,8.8-3.8,7.3-10.1c-0.1-0.5,0.1-1.5,0.6-1.8c3.6-2.3,1.9-4.6,0.4-7.2c-0.7-1.2-1-2.7-1.6-4.3
	c5.3-1.2,10.1-2.3,14.9-3.4c0.1-0.6,0.1-1.3,0.2-1.9c-3.7-1.7-7.3-3.4-11-5c-0.4-0.2-1.4,0.7-1.9,1.3c-1.7,2.1-3.4,4.2-4.6,5.8
	C858.6,159.4,858.4,162.8,857.9,166.1z M657.5,42.8c-3.7,0.4-7.3,0.9-11,1.5c-5.5,1-11.3,1.4-16.5,3.4c-4.8,1.9-9,5.5-13.3,8.5
	c-1.6,1.1-2.7,2.8-4.3,4.6c4.6,1.8,8.1,3.5,11.7,4.5c1.4,0.4,3.4-0.6,4.9-1.4c0.4-0.2,0.4-2.4-0.1-2.9c-3.1-3.1-1-4.7,1.4-6.6
	c6.1-4.9,13.3-5.1,20.5-4.3c5.3,0.6,8.4-1.8,11.9-6.8C660.3,43,658.9,42.7,657.5,42.8z M941.9,448.7c4.1-4.3,8.2-8.6,11.8-13.3
	c0.9-1.1-0.1-3.7-0.3-5.6c-1.7,0.4-3.8,0.4-5.1,1.4c-4.3,3.3-8.3,6.9-12.2,10.6c-1.3,1.2-2.8,3.5-2.4,4.8c0.4,1.3,2.9,2,4.1,2.8
	C939.7,449.1,941.2,449.3,941.9,448.7z M247.8,49.3c-2.1-0.5-4.2-1.3-6.3-1.4c-5.1-0.2-10.3,0.1-15.4-0.3c-2.9-0.3-5.9-1.5-8.6-2.7
	c-5.6-2.3-11.2-4.9-16.8-7.4c-0.3,0.7-0.7,1.4-1,2c4.6,6.2,12.6,7.8,18.9,10.5c8.9,3.8,19.2,1.7,29,1.6
	C247.6,50.9,247.7,50.1,247.8,49.3z M427.9,79.9c-3.1-0.2-6.2-0.3-9.3-0.5c-3.9-0.2-7.7-0.7-11.6-0.6c-1.8,0-3.6,1-5.4,1.6
	c1.2,2,2.2,4.2,3.8,5.8c0.8,0.8,3.5,0,4.1,0.9c3.1,4.1,6.4,2.3,9.7,0.8c3.2-1.5,6.3-3.4,9.4-5.1C428.3,81.7,428.1,80.8,427.9,79.9z
	 M742,263.3c2.4,5.3,4.1,9.6,6.2,13.7c2.4,4.6,5,9.2,7.8,13.6c0.8,1.3,2.7,1.8,4.5,3C760.6,284.2,749.8,265.7,742,263.3z
	 M805.5,239.5c-4.6,5.3-4.6,5.3,0.2,10.6c0.6,0.7,1.1,1.6,1.5,2.3c-1.8,2.4-3.4,4.6-5,6.7c0.2,0.2,0.5,0.3,0.7,0.5
	c4.1-3.4,8.3-6.9,12.8-10.7c-2.6-0.6-5.2-1.2-8.5-2c0.9-1.7,1.4-3.4,2.5-4.6c3.3-3.9,3.1-4.9-2.1-7.4
	C806.9,236.6,806.6,238.3,805.5,239.5z M449.7,114.2c-3.4-0.7-7.8,5.7-7.5,10.6c0.1,1.1,2.2,3,3.4,3.1c3.8,0.2,9-4.8,9.9-8.9
	C453.6,117.3,451.9,114.7,449.7,114.2z M958,417.2c-1.8-1.7-0.6-5.9-5.2-6.3c-0.1,5,5.9,9.9-1.3,14.2c2.6,0.8,4.1,1.2,5.6,1.7
	c-0.1,1.7-0.2,3.2-0.3,4.7c0.5,0.2,0.9,0.5,1.4,0.7c2.5-3.7,4.9-7.4,7.3-11C962.5,419.7,959.8,419,958,417.2z M800.2,308.7
	c0.4,0.1,0.9,0.2,1.3,0.4c1.6-1.1,3.3-2.1,5.1-3.3c1.7,3,1,8.4,7.7,7c-1.8-3.7-3.4-7-4.9-10.1c0.9-0.6,2.3-1.4,3.6-2.3
	c-1.5-0.5-3-1.2-4.6-1.5c-1.9-0.3-3.9-0.2-6.2-0.4C801.6,301.9,800.9,305.3,800.2,308.7z M814.7,274.3c2.8,3.3,4.8,1.5,6.3-0.7
	c2.3-3.4,1.5-6.5-2.1-8c-2.1,0.9-4.3,0.9-6.3,1.6c-1.9,0.7-3.5,2-5.7,3.3C810.6,272.2,813.3,272.7,814.7,274.3z M199.1,62.1
	c1.3-1.3,2.1-4.2,1.5-5.7c-0.5-1.2-3.4-1.6-5.3-2c-0.9-0.2-2,0.3-2.9,0.6c-2,0.6-3.9,1.3-5.9,1.9c1.9,1,3.8,1.9,5.8,2.9
	C194.5,61,194.8,66.5,199.1,62.1z M262,228.6c-4.8-2.9-9.4-6.3-14.6-8.4c-3.6-1.5-7.6-0.3-11.9,3.1c2.5,0.3,3.7,0.8,4.9,0.6
	c5.6-0.8,10.3,0.6,14.7,4.4c1.6,1.4,4.2,1.5,6.3,2.2C261.6,229.9,261.8,229.3,262,228.6z M193,50.7c0.6,0.5,3.2-0.9,4.7-1.8
	c0.6-0.4,0.7-1.7,1.1-2.5c-1.4-0.5-2.9-1.4-4.3-1.6c-2.6-0.3-5.3-0.1-7.9-0.1c-6.1,0.1-6.7,1-4.8,8.1
	C184.9,48.5,188.4,46.6,193,50.7z M281,236.4c-1.7-2-3-5.1-5.2-5.9c-4.3-1.7-7.7,0.7-10.9,5c5.3,0.9,10,1.7,14.6,2.5
	C280,237.5,280.5,236.9,281,236.4z M195.3,40.6c-1.4-1.6-2.4-4.2-4.2-4.7c-3-1-6.5-1-9.7-0.9c-1.1,0-2.2,1.5-3.3,2.3
	c1.3,0.8,2.4,1.8,3.8,2.2c2.3,0.8,4.7,1.2,7.1,1.8c1.6,0.4,3.2,0.7,4.8,1C194.3,41.7,194.8,41.1,195.3,40.6z M693.3,279.9
	c4.9-3.3,5.3-9.9,1-15.2C691,268.3,690.5,275.4,693.3,279.9z M871.1,432.3c2.1,2.3,4.3,6.5,6,6.3c4.4-0.5,5.1-5,5.8-8.8
	C879.2,430.6,875.7,431.3,871.1,432.3z M806.2,292.2c-0.2,0-0.4-0.1-0.5,0c-0.6,0.5-1.5,1-1.6,1.6s0.5,1.6,1.1,1.9
	c2,1.2,11.2-1.4,13.1-4.1C813.9,291.8,810,292,806.2,292.2z M216.5,55.6c-5-3.8-7.2-3.4-12.1,2.3C209.1,58.1,213,58.7,216.5,55.6z
	 M814.6,330c2.1-1.1,4.5-2,6.3-3.5c0.8-0.6,0.7-2.4,1-3.6c-1.3-0.3-3.4-1.2-3.9-0.7c-1.9,1.9-3.3,4.4-4.9,6.6
	C813.6,329.3,814.1,329.7,814.6,330z M165.6,35c-4.2,2.3-7.2,3.8-10.1,5.4c0.2,0.5,0.4,0.9,0.6,1.4c2.7,0,5.4,0,8.8,0
	C165.1,40.1,165.3,38.3,165.6,35z M505.1,171.1c1.6,1.3,3.1,3,4.9,3.9c1,0.5,2.5-0.2,3.8-0.4c-0.5-1.2-0.6-3.2-1.5-3.5
	c-2.1-0.9-4.5-1-6.8-1.4C505.4,170.2,505.3,170.7,505.1,171.1z M807.7,213.8c-3.4,1.9-4.7,4.8-3.6,8.7c0.6,0.2,1.1,0.5,1.7,0.7
	c1.2-2.9,2.5-5.8,3.7-8.7C808.9,214.3,808.3,214.1,807.7,213.8z M826.9,298.5c0.9-3.1,1.8-6.2,2.6-9.3c-0.8-0.3-1.7-0.5-2.5-0.8
	c-1.1,3-2.1,6-3.2,9C824.9,297.8,825.9,298.2,826.9,298.5z M815.4,263.8c0.2-0.3,0.4-0.7,0.7-1c-1.7-1.5-3.4-3-5.1-4.4
	c-1,1.5-1.9,3-3.5,5.4C811.3,263.8,813.4,263.8,815.4,263.8z M7.9,116.9c-0.9,1.6-1.4,3-2.4,3.9c-1.1,1-2.7,1.6-5.1,3
	C8.2,124.6,9.7,123.2,7.9,116.9z M493.5,161.1c0,1.9,0,3.8,0,5.6c1.3-0.4,2.5-0.7,3.8-1.1c-0.5-1.6-1-3.3-1.5-4.9
	C495,160.9,494.2,161,493.5,161.1z M926.8,365.1c2,1.6,4,3.2,6,4.8c0.4-0.8,1.4-2.2,1.3-2.2c-1.9-1.5-4-2.9-6-4.3
	C927.7,363.9,927.3,364.5,926.8,365.1z"/>
</svg>
