<?xml version="1.0" encoding="utf-8"?>
<!-- Generator: Adobe Illustrator 22.1.0, SVG Export Plug-In . SVG Version: 6.00 Build 0)  -->
<svg width="260px" height="110px" version="1.1" id="Layer_1" xmlns="http://www.w3.org/2000/svg" xmlns:xlink="http://www.w3.org/1999/xlink" x="0px" y="0px"
	 viewBox="0 0 260 110" style="enable-background:new 0 0 260 110;" xml:space="preserve">
<style type="text/css">
	.st0{fill:#C2E4F8;}
	.st1{fill:#FFFFFF;}
	.st2{fill:#E3BD97;}
	.st3{fill:#3AAFF2;}
	.st4{fill:#4D92D6;}
	.st5{fill:#F7D5AF;}
	.st6{fill:#6B363E;}
	.st7{fill:#FFFFFF;stroke:#C2E4F8;}
	.st8{fill:#D8D8D8;}
	.st9{fill:#F22E59;}
	.st10{fill:#3DAEEF;}
</style>
<rect id="path-1_1_" y="0" class="st0" width="260" height="110"/>
<rect id="Rectangle-2" x="208.4" y="30" transform="matrix(0.2924 -0.9563 0.9563 0.2924 117.464 250.5821)" class="st1" width="39.4" height="31.9"/>
<path id="Mask_1_" class="st2" d="M230.3,53.8l7.2,5c0.8,0.7,1.3,1.7,1.3,2.9l-2,6.6l-28.6-8.7l2-6.6c0.7-0.9,1.7-1.5,2.7-1.6
	l8.8-0.2l1.5-5.1l8.6,2.6L230.3,53.8z"/>
<path id="Combined-Shape" class="st3" d="M231.6,54.7l5.9,4.1c0.8,0.7,1.3,1.7,1.3,2.9l-2,6.6l-28.6-8.7l2-6.6
	c0.7-0.9,1.7-1.5,2.7-1.6l7.2-0.1c-0.7,2.4,1.3,5,4.4,6S230.9,57,231.6,54.7z"/>
<path id="Combined-Shape_1_" class="st4" d="M231.4,54.5l1,0.7c-1,2.7-4.5,4-8.1,2.9c-3.5-1.1-5.8-4.1-5.1-6.9h1.3
	c-0.6,2.3,1.3,4.8,4.2,5.7C227.7,57.8,230.6,56.7,231.4,54.5z"/>
<path id="Shape" class="st5" d="M224.5,52.6c-0.4-0.4-1.7-2.1-2.1-2.8c-0.5-0.9-0.7-1.9-0.3-3.5c0.3-1.5,1.5-7,1.9-8.3
	c0.5-1.8,2.9-4,7.4-2.6c4.5,1.4,5.2,4.6,4.6,6.3c-0.4,1.2-2.5,6.5-3.1,8s-1.2,2.2-2.2,2.7c-0.7,0.3-2.8,1-3.3,1.1
	c-0.4,0-1.1-0.1-1.5-0.2C225.4,53.1,224.8,52.9,224.5,52.6z"/>
<path id="Combined-Shape_2_" class="st6" d="M222,40.5c0.1-0.6,0.2-2.3,0.5-3.2l0.1-0.4c0.1-0.3,0.2-0.5,0.3-0.8
	c0.7-1.3,2.1-2.9,4.8-2.9c-0.2-0.5,0.1-1.3,0.1-1.3s1.7,1,3.5,1.4c3.9,0.9,4.1,3.6,4.1,3.9c0.6,0.3,1.5,1,1.7,1.9
	c0.3,0.9,0.4,1.9,0.2,2.8c-0.5,1.7-0.9,2.1-1.6,3.3c-0.6,0.8-1.2,1.1-1.2,1.1l-0.5,0.5l0.9-3c0,0-1.7-2.7-1.9-4
	c-0.3,0.2-0.6,0.4-0.9,0.5c-1.8,0.7-3.8,0-3.8,0s0.6-0.6,0.6-1.9c-1.7,1.2-3.7,1.7-5.6,1.6l-0.7,3.2c0,0-0.7-1.2-0.7-2.3
	C222,40.8,222,40.7,222,40.5L222,40.5z"/>
<rect id="Rectangle-2_1_" x="202.3" y="22.2" transform="matrix(0.1908 -0.9816 0.9816 0.1908 142.1753 248.7922)" class="st1" width="39.4" height="31.9"/>
<path id="Mask_2_" class="st2" d="M225.1,45.7l7.7,4.3c0.9,0.6,1.4,1.5,1.6,2.7l-1.3,6.8l-29.3-5.7l1.3-6.8c0.6-1,1.5-1.7,2.5-1.9
	l8.7-1.1l1-5.2l8.8,1.7L225.1,45.7z"/>
<path id="Combined-Shape_3_" class="st3" d="M226.5,46.5l6.3,3.5c0.9,0.6,1.4,1.5,1.6,2.7l-1.3,6.7l-29.3-5.7l1.3-6.7
	c0.6-1,1.5-1.7,2.5-1.9l7.1-0.9c-0.4,2.4,1.8,4.9,5,5.5C223,50.3,225.9,48.9,226.5,46.5z"/>
<path id="Combined-Shape_4_" class="st4" d="M226.2,46.3l1.1,0.6c-0.7,2.8-4.1,4.4-7.7,3.7s-6.2-3.5-5.8-6.3l1.2-0.2
	c-0.4,2.3,1.7,4.6,4.8,5.2C222.8,49.9,225.6,48.6,226.2,46.3z"/>
<path id="Shape_1_" class="st5" d="M219.1,45.1c-0.5-0.3-1.9-1.9-2.4-2.5c-0.6-0.9-0.9-1.8-0.7-3.4c0.2-1.6,0.8-7.2,1-8.4
	c0.4-1.8,2.5-4.3,7.1-3.4c4.6,0.9,5.6,4,5.3,5.8c-0.2,1.3-1.8,6.7-2.2,8.2s-1,2.3-1.9,2.9c-0.7,0.4-2.7,1.3-3.2,1.4
	c-0.4,0.1-1.1,0.1-1.5,0C220.1,45.6,219.5,45.4,219.1,45.1z"/>
<path id="Combined-Shape_5_" class="st6" d="M215.4,33.3c0-0.6,0-2.3,0.1-3.2l0.1-0.4c0.1-0.3,0.1-0.6,0.3-0.8
	c0.5-1.4,1.7-3.1,4.4-3.4c-0.2-0.5,0-1.3,0-1.3s1.8,0.8,3.6,1c3.9,0.5,4.4,3.2,4.5,3.4c0.6,0.2,1.6,0.9,1.9,1.7
	c0.3,0.9,0.6,1.8,0.4,2.7c-0.3,1.8-0.6,2.1-1.2,3.4c-0.5,0.8-1.1,1.2-1.1,1.2l-0.4,0.6l0.6-3.1c0,0-2-2.5-2.3-3.8
	c-0.3,0.2-0.6,0.5-0.8,0.6c-1.8,0.9-3.8,0.4-3.8,0.4s0.6-0.7,0.4-1.9c-1.5,1.4-3.5,2-5.4,2.2l-0.3,3.3c0,0-0.9-1.1-0.9-2.2
	C215.5,33.6,215.5,33.5,215.4,33.3C215.4,33.4,215.4,33.3,215.4,33.3z"/>
<path id="Rectangle-12" class="st7" d="M26.2,32.6h21.2c3.9,0,7,3.1,7,7v44.8c0,3.9-3.1,7-7,7H26.2c-3.9,0-7-3.1-7-7V39.6
	C19.2,35.7,22.3,32.6,26.2,32.6z"/>
<circle id="Oval-5" class="st8" cx="36.8" cy="85.6" r="3.1"/>
<rect id="Rectangle-12-Copy" x="21.8" y="40" class="st0" width="29.9" height="40.1"/>
<path id="Mask_3_" class="st2" d="M41.3,68l8.3,2.7c1,0.4,1.7,1.2,2.1,2.3v6.9H21.8V73c0.4-1.1,1.2-2,2.1-2.3l8.3-2.7v-5.3h9
	L41.3,68L41.3,68z"/>
<path id="Combined-Shape_6_" class="st3" d="M42.7,68.5l6.8,2.2c1,0.4,1.7,1.2,2.1,2.3v7H21.8v-6.9c0.4-1.1,1.2-2,2.1-2.3l6.8-2.2
	c0.1,2.4,2.7,4.4,6,4.4S42.7,71,42.7,68.5z"/>
<path id="Combined-Shape_7_" class="st4" d="M42.4,68.4l1.2,0.4c-0.1,2.8-3.2,5.1-6.9,5.1s-6.7-2.3-6.9-5.1l1.2-0.4
	c0.1,2.3,2.6,4.2,5.7,4.2S42.3,70.8,42.4,68.4z"/>
<path id="Shape_2_" class="st5" d="M35.3,68.6c-0.5-0.2-2.3-1.5-2.9-2c-0.8-0.7-1.2-1.6-1.3-3.2c-0.1-1.6-0.6-7.2-0.6-8.5
	c0-1.8,1.6-4.7,6.3-4.7s6.3,2.8,6.3,4.7c0,1.3-0.5,6.9-0.6,8.5s-0.5,2.5-1.3,3.2c-0.6,0.5-2.4,1.8-2.9,2c-0.4,0.2-1,0.3-1.5,0.3
	S35.7,68.8,35.3,68.6z"/>
<path id="Combined-Shape_8_" class="st6" d="M29.4,57.7c-0.1-0.6-0.5-2.3-0.5-3.2V54c0-0.3,0-0.6,0.1-0.9c0.3-1.5,1.1-3.4,3.7-4.2
	c-0.3-0.4-0.3-1.2-0.3-1.2s1.9,0.5,3.7,0.3c3.9-0.3,5,2.3,5.1,2.5c0.7,0.1,1.7,0.5,2.2,1.3s1,1.7,1,2.6c0,1.8-0.2,2.2-0.5,3.6
	c-0.4,1-0.9,1.5-0.9,1.5l-0.3,0.6V57c0,0-2.4-2.1-2.9-3.2c-0.2,0.3-0.5,0.5-0.7,0.7c-1.6,1.2-3.7,1.2-3.7,1.2s0.4-0.8,0-2
	c-1.2,1.7-3,2.7-4.9,3.2l0.3,3.3c0,0-1.1-1-1.3-2C29.5,58,29.5,57.9,29.4,57.7C29.4,57.8,29.4,57.8,29.4,57.7z"/>
<path id="Rectangle-12-Copy-2" class="st8" d="M32.1,35.2h9.4c0.4,0,0.8,0.4,0.8,0.8l0,0c0,0.4-0.4,0.8-0.8,0.8h-9.4
	c-0.4,0-0.8-0.4-0.8-0.8l0,0C31.3,35.6,31.6,35.2,32.1,35.2z"/>
<path id="Combined-Shape_9_" class="st9" d="M47.8,76.1V73c0-0.4,0.4-0.8,0.8-0.8s0.8,0.4,0.8,0.8v3.9c0,0.4-0.4,0.8-0.8,0.8h-3.9
	c-0.4,0-0.8-0.4-0.8-0.8s0.4-0.8,0.8-0.8H47.8z M25.8,76.1h3.1c0.4,0,0.8,0.4,0.8,0.8s-0.4,0.8-0.8,0.8H25c-0.4,0-0.8-0.4-0.8-0.8
	s0.4-0.8,0.8-0.8H25.8V73c0-0.4-0.4-0.8-0.8-0.8s-0.8,0.4-0.8,0.8v3.9c0,0.4,0.4,0.8,0.8,0.8s0.8-0.4,0.8-0.8V76.1z M49.1,42.5
	c0.1,0.1,0.2,0.3,0.2,0.6V47c0,0.4-0.4,0.8-0.8,0.8s-0.8-0.4-0.8-0.8v-3.1h-3.1c-0.4,0-0.8-0.4-0.8-0.8c0-0.4,0.4-0.8,0.8-0.8h3.9
	C48.8,42.3,49,42.4,49.1,42.5z M25.8,43.9V47c0,0.4-0.4,0.8-0.8,0.8s-0.8-0.4-0.8-0.8v-3.9c0-0.4,0.4-0.8,0.8-0.8h3.9
	c0.4,0,0.8,0.4,0.8,0.8c0,0.4-0.4,0.8-0.8,0.8C28.9,43.9,25.8,43.9,25.8,43.9z"/>
<path id="小二寸证件照" class="st1" d="M72.2,67.6H75v21.9c0,1.5-0.8,2.2-2.4,2.1l-5.3-0.3V89l4.1,0.3c0.5,0,0.8-0.1,0.8-0.7
	V67.6z M66.1,73.1l2.7,0.7c-1.1,4.2-2.5,8.3-4.4,12.5l-2.5-1.1C63.7,81.2,65.1,77.1,66.1,73.1z M78.4,74l2.4-1
	c1.7,4.3,3,7.9,4.5,12.5l-2.6,0.8C81.5,82.3,79.9,77.8,78.4,74z M91.2,70.4h19.3v2.2H90.7L91.2,70.4z M89.2,87h23.3v2.2H88.7
	L89.2,87z M131,67.8h2.7v4.5h5.7v2.2h-5.7v15c0,1.5-0.7,2.2-2.4,2.1l-6.8-0.5l-0.1-2.2l5.7,0.4c0.7,0,0.9-0.1,0.9-0.7V74.5h-15.1
	l0.6-2.2H131V67.8z M118.2,78.8l2-1.8c2,1.8,4.5,4.5,6.1,6.4l-2.1,1.8C122.4,83.1,120.1,80.5,118.2,78.8z M152.5,76.5h2.7v12.4h3
	V71.6h-7.4l0.7-2.2h14.4v2.2h-5v6.5h4v2.2h-4v8.6h5.3v2.2H150l0.6-2.2h1.8L152.5,76.5L152.5,76.5z M147.5,76.5v11.7
	c0,0.4,0.1,0.6,0.6,0.5l1.5-0.3v2.3l-2.7,0.6c-1.5,0.3-2.1-0.6-2.1-1.8V77.7c0-0.2-0.2-0.4-0.4-0.4h-2l0.4-2.2h3.2
	C147,75.1,147.5,75.6,147.5,76.5z M144.2,68.5l2.5-0.9l2.2,5l-2.5,1.1L144.2,68.5z M177,81.2h7v-5.9h-3.9c-0.5,1.5-1.1,2.8-1.8,3.9
	l-2.4-1.2c1.4-2.5,2.5-5.6,3.1-9l2.6,0.6c-0.2,1.2-0.5,2.4-0.8,3.6h3.2V68h2.7v5h5.8v2.2h-5.8v5.9h6.5v2.2h-6.5v8.3H184v-8.3h-7.5
	L177,81.2z M174.8,91.7H172V78.8c-0.6,0.9-1.3,1.9-2,2.8l-0.9-3.3c1.9-2.7,3.9-6.9,4.7-10.7l2.7,0.6c-0.5,1.9-1.1,3.7-1.8,5.4v18.1
	H174.8z M197.1,83.7V69.6c0-0.7,0.5-1.2,1.2-1.2h6.4c0.7,0,1.2,0.5,1.2,1.2v14.1c0,0.7-0.6,1.2-1.2,1.2h-6.4
	C197.6,84.9,197.1,84.4,197.1,83.7z M208.2,77.7h9.9c0.5,0,1,0.4,1,1V84c0,0.5-0.4,1-1,1h-9.9c-0.5,0-1-0.4-1-1v-5.3
	C207.2,78.2,207.7,77.7,208.2,77.7z M210,70.8h-3.3l0.7-2.2h10.8c0.7,0,1.2,0.5,1.2,1.2v4.9c0,1.5-0.6,2.4-2.4,2.3l-4.5-0.3v-2.1
	l3.3,0.2c0.7,0,0.9-0.1,0.9-0.7v-2.7c0-0.3-0.3-0.6-0.6-0.6h-3.5c-0.3,2.9-1.8,5.1-4.1,6.5l-1.8-1.9C208.6,74.3,209.7,72.7,210,70.8
	z M210,80.3v2.2c0,0.2,0.2,0.4,0.4,0.4h5.6c0.2,0,0.4-0.2,0.4-0.4v-2.2c0-0.2-0.2-0.4-0.4-0.4h-5.6C210.1,79.9,210,80.1,210,80.3z
	 M203.2,75.5v-4.6c0-0.2-0.2-0.4-0.4-0.4h-2.6c-0.2,0-0.4,0.1-0.4,0.4v4.6H203.2z M199.8,77.8v4.6c0,0.2,0.2,0.4,0.4,0.4h2.6
	c0.2,0,0.4-0.2,0.4-0.4v-4.6H199.8z M198.8,85.8l2.5,1.1l-2.6,4.7l-2.5-1.1L198.8,85.8z M215.1,87l2.3-1.2l2.6,4.7l-2.4,1.3
	L215.1,87z M203.1,87.2l2.5-0.9l1.8,4.5l-2.7,0.8L203.1,87.2z M209.2,87.2l2.6-0.8l1.9,4.2l-2.5,1L209.2,87.2z"/>
<path id="Rectangle" class="st10" d="M66.1,35.6h70.2c1.7,0,3,1.3,3,3v14.3c0,1.7-1.3,3-3,3H66.1c-1.7,0-3-1.3-3-3V38.6
	C63.1,37,64.5,35.6,66.1,35.6z"/>
<path id="免费制作" class="st1" d="M82.4,48.5l1.2,0.2l-0.3,1.9c-0.1,0.6-0.5,0.8-1,0.8h-3.2c-0.7,0-1.2-0.4-1.2-1.1v-2.5
	c-0.8,1.7-2.7,3.1-5.4,3.7L72,50.3c2.2-0.5,3.8-1.4,4.6-2.8H74c-0.3,0-0.6-0.3-0.6-0.6v-3c-0.1,0.1-0.2,0.2-0.3,0.3l-0.9-1
	c1-0.7,2.4-2.1,3.1-3.4l1.3,0.3c-0.1,0.3-0.3,0.5-0.4,0.7h3.9c0.8,0,0.9,0.7,0.5,1.1l-1.3,1.4h2.4c0.3,0,0.6,0.3,0.6,0.6v2.9
	c0,0.3-0.3,0.6-0.6,0.6h-2.3v2.4c0,0.3,0.1,0.4,0.4,0.4h2c0.2,0,0.4-0.1,0.4-0.3L82.4,48.5z M81,46.3v-1.8c0-0.1-0.1-0.1-0.2-0.1
	h-2.3v1.2c0,0.3,0,0.6-0.1,0.9h2.4C80.9,46.5,81,46.4,81,46.3z M74.7,44.5v1.8c0,0.1,0.1,0.1,0.2,0.1H77c0.1-0.3,0.1-0.7,0.1-1v-1.1
	h-2.3C74.8,44.4,74.7,44.4,74.7,44.5z M74,43.3h3.6l1.2-1.4h-3.6C74.9,42.5,74.5,42.9,74,43.3z M90.8,45h-2c-0.1,0-0.3,0-0.4-0.2
	c-0.1-0.1-0.1-0.2-0.1-0.4l0.4-1.9c0-0.2,0.2-0.4,0.5-0.4h2.5v-0.7h-3.3l0.3-1h3v-0.6H93v0.6h1.6v-0.6h1.3v0.6h2.4
	c0.3,0,0.5,0.2,0.5,0.5v1.8c0,0.3-0.2,0.5-0.5,0.5h-2.4V44h2.9c0.3,0,0.5,0.2,0.5,0.5v1.2c0,0.7-0.3,1.1-1,1h-0.5
	c0,0.1,0.1,0.2,0.1,0.3v2.4h-1.3v-1.7c0-0.2-0.1-0.3-0.3-0.3H91c-0.2,0-0.3,0.1-0.3,0.3v1.7h-1.3V47c-0.3,0.1-0.6,0.2-1,0.2
	l-0.6-1.1C89.3,45.8,90.2,45.6,90.8,45z M93.1,47.7l1.3,0.1c-0.1,0.5-0.2,0.9-0.4,1.2l5.1,1.2l-0.4,1.2L93.3,50
	c-0.9,0.8-2.4,1.2-4.9,1.4l-0.3-1.2C91.2,50.3,92.8,49.7,93.1,47.7z M96.6,46.4v-0.7l1,0.1c0.3,0,0.3-0.1,0.3-0.2v-0.3
	c0-0.1,0-0.2-0.2-0.2h-1.9v1h-1.3v-1h-2.1c-0.3,0.5-0.7,0.9-1.4,1.3C91,46.4,96.6,46.4,96.6,46.4z M89.8,43.3l-0.1,0.5
	c0,0.1,0,0.2,0.1,0.2h1.6c0.1-0.2,0.1-0.5,0.1-0.8L89.8,43.3L89.8,43.3z M92.8,44h1.7v-0.8h-1.6C92.8,43.5,92.8,43.8,92.8,44z
	 M92.9,41.5v0.7h1.6v-0.7H92.9z M95.8,42.2h1.5c0.1,0,0.1-0.1,0.1-0.1v-0.5c0-0.1,0-0.1-0.1-0.1h-1.5V42.2z M103.6,44h2.6v-1.4h-1.4
	c-0.1,0.4-0.2,0.7-0.3,1l-1.2-0.3c0.4-0.9,0.6-1.9,0.8-2.9l1.2,0.2c-0.1,0.3-0.1,0.7-0.2,1h1.1V40h1.3v1.6h2.5v1.1h-2.5V44h2.8v1.1
	h-2.8v1.3h1.9c0.3,0,0.6,0.3,0.6,0.6v3c0,0.6-0.2,0.9-0.8,0.9H108v-1.1h0.5c0.1,0,0.2,0,0.2-0.1v-2c0-0.1-0.1-0.2-0.2-0.2h-1.1v4.1
	h-1.3v-4.1H105c-0.1,0-0.2,0.1-0.2,0.2V51h-1.3v-3.9c0-0.3,0.3-0.6,0.6-0.6h1.9v-1.3h-2.9L103.6,44z M113.4,39.8h1.3v10.8
	c0,0.6-0.3,0.9-1,0.9l-2.6-0.1v-1.1l1.9,0.1c0.2,0,0.3-0.1,0.3-0.2L113.4,39.8L113.4,39.8z M111.1,41h1.3v7.8h-1.3V41z M122.8,45.9
	l-0.9-1c1-1.3,1.9-3.2,2.4-5.1l1.3,0.3c-0.1,0.5-0.3,1-0.5,1.6h5.3v1.1h-4.1v2h3.6v1.1h-3.6v1.9h3.6v1.1h-3.6v2.6H125v-8.7h-0.3
	C124.2,44,123.5,45.1,122.8,45.9z M121.6,51.5h-1.3v-6.1c-0.3,0.6-0.7,1.1-1.1,1.6l-0.4-1.7c0.9-1.4,1.9-3.7,2.3-5.5l1.3,0.4
	c-0.3,0.9-0.5,1.7-0.9,2.5L121.6,51.5L121.6,51.5z"/>
</svg>
