<?xml version="1.0" encoding="utf-8"?>
<!-- Generator: Adobe Illustrator 22.1.0, SVG Export Plug-In . SVG Version: 6.00 Build 0)  -->
<svg version="1.1" id="Layer_1" xmlns="http://www.w3.org/2000/svg" xmlns:xlink="http://www.w3.org/1999/xlink" x="0px" y="0px"
	 viewBox="0 0 2785.2 1200" style="enable-background:new 0 0 2785.2 1200;" xml:space="preserve">
<style type="text/css">
	.st0{opacity:0.3;}
	.st1{fill:#FFFFFF;}
</style>
<g id="Artboard-1" class="st0">
	<path id="Fill-1" class="st1" d="M377.4,1193.7l-0.8-1.9c7.4-3,14.8-6,22.2-8.9l0.8,1.9C392.2,1187.7,384.8,1190.7,377.4,1193.7
		 M421.7,1175.8l-0.7-1.9c7.4-2.9,14.9-5.9,22.3-8.8l0.7,1.9C436.6,1170.1,429.2,1172.9,421.7,1175.8 M466.4,1158.3l-0.7-1.9
		c7.4-2.9,14.9-5.8,22.3-8.6l0.7,1.9C481.3,1152.7,473.8,1155.6,466.4,1158.3 M511,1141.2l-0.7-1.9c7.5-2.8,14.9-5.6,22.4-8.4
		l0.7,1.9C525.9,1135.7,518.5,1138.4,511,1141.2 M555.8,1124.6l-0.7-1.9c7.5-2.8,15-5.5,22.5-8.3l0.7,1.9
		C570.8,1118.9,563.3,1121.8,555.8,1124.6 M600.7,1108.1l-0.7-1.9c7.5-2.7,15-5.4,22.5-8.1l0.7,1.9
		C615.7,1102.7,608.2,1105.3,600.7,1108.1 M645.8,1091.9l-0.7-1.9c7.5-2.7,15.1-5.3,22.6-7.9l0.7,1.9
		C660.8,1086.7,653.3,1089.3,645.8,1091.9 M691.1,1076.2l-0.7-1.9c7.6-2.6,15.1-5.2,22.7-7.8l0.7,1.9
		C706.2,1070.9,698.6,1073.6,691.1,1076.2 M827.2,1030.9l-0.6-1.9c7.6-2.4,15.2-4.8,22.8-7.2l0.6,1.9
		C842.4,1026.2,834.8,1028.6,827.2,1030.9 M872.8,1016.7l-0.6-1.9c7.6-2.4,15.2-4.7,22.9-7l0.6,1.9
		C888.1,1011.8,880.5,1014.2,872.8,1016.7 M918.7,1002.5l-0.6-2c7.6-2.3,15.3-4.6,22.9-6.9l0.6,2C934,998,926.4,1000.2,918.7,1002.5
		 M964.5,989l-0.6-2c7.7-2.2,15.3-4.5,23-6.7l0.6,2C979.8,984.5,972.2,986.7,964.5,989 M1010.5,975.7l-0.6-2
		c7.7-2.2,15.4-4.4,23.1-6.5l0.5,2C1025.8,971.3,1018.1,973.5,1010.5,975.7 M1056.6,962.8l-0.5-2c7.7-2.1,15.4-4.2,23-6.3l0.5,2
		C1072,958.5,1064.2,960.7,1056.6,962.8 M1102.8,950.2l-0.5-2c7.7-2.1,15.4-4.1,23.1-6.1l0.5,2
		C1118.1,946.2,1110.4,948.2,1102.8,950.2 M1149.1,938l-0.5-2c7.7-2,15.5-4,23.2-5.9l0.5,2C1164.6,934,1156.8,936,1149.1,938
		 M1195.4,926.3l-0.5-2c7.8-1.9,15.5-3.8,23.3-5.7l0.5,2C1210.9,922.5,1203.2,924.3,1195.4,926.3 M1241.9,915l-0.5-2
		c7.8-1.9,15.5-3.7,23.3-5.5l0.5,2C1257.5,911.2,1249.7,913,1241.9,915 M1288.6,904l-0.5-2c7.8-1.8,15.6-3.6,23.4-5.4l0.5,2
		C1304.1,900.3,1296.4,902.2,1288.6,904 M1335.1,893.3l-0.4-2c7.8-1.7,15.6-3.5,23.4-5.2l0.4,2
		C1350.7,890,1342.9,891.7,1335.1,893.3 M1381.9,883.2l-0.4-2c7.8-1.7,15.6-3.3,23.4-4.9l0.4,2
		C1397.5,880,1389.7,881.5,1381.9,883.2 M1428.7,873.5l-0.4-2c7.8-1.6,15.7-3.2,23.5-4.7l0.4,2
		C1444.4,870.2,1436.6,871.8,1428.7,873.5 M1475.7,864l-0.4-2c7.8-1.5,15.7-3,23.5-4.5l0.4,2C1491.2,861,1483.5,862.5,1475.7,864
		 M1522.8,855l-0.4-2c7.8-1.5,15.7-2.9,23.5-4.3l0.4,2C1538.5,852.2,1530.6,853.7,1522.8,855 M1569.9,846.5l-0.4-2
		c7.9-1.4,15.7-2.8,23.6-4.1l0.3,2C1585.6,843.8,1577.7,845.2,1569.9,846.5 M1617,838.5l-0.3-2c7.9-1.3,15.7-2.6,23.6-3.9l0.3,2
		C1632.7,835.8,1624.8,837.2,1617,838.5 M1664.2,830.8l-0.3-2c7.9-1.2,15.7-2.5,23.6-3.7l0.3,2
		C1680,828.3,1672.2,829.5,1664.2,830.8 M1711.5,823.5l-0.3-2c7.9-1.2,15.8-2.3,23.7-3.5l0.3,2
		C1727.2,821.2,1719.4,822.5,1711.5,823.5 M1758.9,816.8l-0.3-2c7.9-1.1,15.8-2.2,23.7-3.2l0.3,2
		C1774.8,814.5,1766.9,815.7,1758.9,816.8 M1806.2,810.5l-0.3-2c7.9-1,15.8-2,23.7-3l0.3,2C1822.1,808.3,1814.2,809.3,1806.2,810.5
		 M1853.8,804.5l-0.2-2c7.9-0.9,15.8-1.9,23.8-2.8l0.2,2C1869.6,802.7,1861.7,803.5,1853.8,804.5 M1901.4,799l-0.2-2
		c7.9-0.9,15.9-1.7,23.8-2.6l0.2,2C1917.2,797.3,1909.2,798.2,1901.4,799 M1949,794l-0.2-2c7.9-0.8,15.9-1.6,23.8-2.3l0.2,2
		C1964.9,792.5,1956.9,793.2,1949,794 M1996.5,789.5l-0.2-2c8-0.7,15.9-1.4,23.9-2.1l0.2,2C2012.4,788.2,2004.4,788.8,1996.5,789.5
		 M2044.1,785.5l-0.2-2c8-0.6,15.9-1.3,23.9-1.9l0.2,2C2060,784.2,2052.1,784.8,2044.1,785.5 M2092,781.8l-0.1-2
		c8-0.6,15.9-1.1,23.9-1.6l0.1,2C2107.9,780.8,2100,781.2,2092,781.8 M2139.6,778.8l-0.1-2c8-0.5,15.9-0.9,23.9-1.4l0.1,2
		C2155.6,777.8,2147.6,778.2,2139.6,778.8 M2187.5,776l-0.1-2c8-0.4,15.9-0.8,23.9-1.1l0.1,2C2203.4,775.2,2195.5,775.7,2187.5,776
		 M2235.2,774l-0.1-2c8-0.3,15.9-0.6,23.9-0.9l0.1,2C2251.2,773.2,2243.1,773.5,2235.2,774 M2283.1,772.2l-0.1-2
		c8-0.2,16-0.5,23.9-0.7l0.1,2C2298.9,771.8,2291.1,772,2283.1,772.2 M2330.9,771v-2c8-0.2,15.9-0.3,23.9-0.4v2
		C2346.8,770.8,2338.9,770.8,2330.9,771 M2378.9,770.3v-2c8-0.1,16-0.1,23.9-0.2v2C2394.8,770.2,2386.8,770.2,2378.9,770.3
		 M2426.7,770.2v-2c8,0,16,0,23.9,0.1v2C2442.6,770.2,2434.7,770.2,2426.7,770.2 M2474.4,770.5v-2c8,0.1,16,0.2,23.9,0.4v2
		C2490.4,770.8,2482.4,770.7,2474.4,770.5 M2522.2,771.3v-2c8,0.2,15.9,0.4,23.9,0.6l-0.1,2C2538.2,771.8,2530.2,771.5,2522.2,771.3
		 M2570.2,772.7l0.1-2c8,0.3,15.9,0.6,23.9,0.9l-0.1,2C2586.1,773.2,2578.1,773,2570.2,772.7 M2617.9,774.5l0.1-2
		c8,0.4,15.9,0.7,23.9,1.1l-0.1,2C2633.9,775.2,2625.9,775,2617.9,774.5 M2665.8,777l0.1-2c8,0.4,15.9,0.9,23.9,1.4l-0.1,2
		C2681.7,777.8,2673.8,777.3,2665.8,777 M2713.6,779.8l0.1-2c8,0.5,15.9,1.1,23.9,1.7l-0.1,2C2729.4,781,2721.6,780.3,2713.6,779.8
		 M2761.2,783.2l0.2-2c8,0.6,15.9,1.3,23.9,1.9l-0.2,2C2777.1,784.5,2769.2,784,2761.2,783.2"/>
	<path id="Fill-4" class="st1" d="M767.9,1086.9c-0.2,0.1-0.4-0.1-0.4-0.3l1.8-31.9c0-0.2-0.1-0.3-0.3-0.3H766
		c-0.9,0.3-12.2,4.3-15.7,4.5c-0.1,0-0.2,0.1-0.2,0.1c-0.4,1-2.4,6.1-3.1,7.7c-0.8,1.7-1.3,4.5-5.1,6.6c-0.2,0.1-0.4,0-0.4-0.3
		l0.9-13.2c-0.7,0.3-1.3,0.3-1.7,0.4c-0.3,0-0.6-0.2-0.7-0.4l-0.2-0.6c-0.1-0.3,0-0.6,0.3-0.7c0.4-0.2,0.7-0.5,1.6-0.7l-8.8-9.8
		c-0.2-0.2,0-0.5,0.1-0.5c4.3-0.6,6.4,1.2,8.1,2.1c1.5,0.8,6.2,3.6,7.2,4.2c0.1,0,0.2,0,0.3,0c2.7-2,14.1-5.8,14.9-6.1l2.4-1.8
		c0.1-0.1,0.1-0.3,0-0.4l-21-24c-0.1-0.1-0.1-0.4,0.1-0.5c3.3-1.3,5.4,0.3,5.4,0.3s4,2.6,9,5.9c0,0,0-0.2,1.9-0.9
		c2.5-1,3.9-0.8,3.9-0.8l0.8,2.2c0,0-0.9,0.9-3.2,1.6c2.3,1.5,4.8,3.1,7.1,4.6c0.2-0.1,0.7-0.4,1.7-0.8c2.5-1,3.9-0.8,3.9-0.8
		l0.8,2.2c0,0-0.8,0.8-2.9,1.6c2.5,1.6,4.5,2.9,5.6,3.5c1.2,0.8,2.4,1.1,3.7,1.1l0.4-0.1c0.1,0,0.2,0,0.2-0.1c2.9-1,6.8-2.3,6.8-2.3
		c4.5-1.5,9.2,0,9.2,0s0.8,0.4,0.5,1.5c0,0-2.8,4-7.2,5.7c0,0-3.9,1.4-6.8,2.4l-0.2,0.1l-0.4,0.2c-1,0.9-1.8,1.8-2.3,3.2
		c-0.4,1-1.1,2.9-1.9,5.2c1.7-0.5,2.6-0.3,2.6-0.3l0.8,2.2c0,0-1,1-3.6,1.8c-0.5,0.2-0.9,0.3-1.2,0.4c-0.9,2.6-1.9,5.5-2.9,8.2
		c2.1-0.7,3.2-0.6,3.2-0.6l0.8,2.2c0,0-1,1-3.6,1.8c-0.9,0.3-1.5,0.4-1.7,0.5c-2,5.9-3.6,10.6-3.6,10.6S771.3,1085.9,767.9,1086.9"
		/>
</g>
</svg>
